<svg width="958" height="460" viewBox="0 0 958 460" fill="none" xmlns="http://www.w3.org/2000/svg">
<mask id="path-1-inside-1_756_8" fill="white">
<path d="M631 102.333C631 106.711 630.353 111.045 629.097 115.089C627.841 119.134 625.999 122.808 623.678 125.904C621.356 128.999 618.6 131.454 615.567 133.129C612.534 134.804 609.283 135.667 606 135.667C602.717 135.667 599.466 134.804 596.433 133.129C593.4 131.454 590.644 128.999 588.322 125.904C586.001 122.808 584.159 119.134 582.903 115.089C581.647 111.045 581 106.711 581 102.333H582.704C582.704 106.412 583.306 110.452 584.477 114.22C585.648 117.989 587.364 121.413 589.527 124.297C591.69 127.182 594.258 129.47 597.085 131.031C599.911 132.592 602.941 133.395 606 133.395C609.059 133.395 612.089 132.592 614.915 131.031C617.742 129.47 620.31 127.182 622.473 124.297C624.636 121.413 626.352 117.989 627.523 114.22C628.694 110.452 629.296 106.412 629.296 102.333H631Z"/>
</mask>
<path d="M631 102.333C631 106.711 630.353 111.045 629.097 115.089C627.841 119.134 625.999 122.808 623.678 125.904C621.356 128.999 618.6 131.454 615.567 133.129C612.534 134.804 609.283 135.667 606 135.667C602.717 135.667 599.466 134.804 596.433 133.129C593.4 131.454 590.644 128.999 588.322 125.904C586.001 122.808 584.159 119.134 582.903 115.089C581.647 111.045 581 106.711 581 102.333H582.704C582.704 106.412 583.306 110.452 584.477 114.22C585.648 117.989 587.364 121.413 589.527 124.297C591.69 127.182 594.258 129.47 597.085 131.031C599.911 132.592 602.941 133.395 606 133.395C609.059 133.395 612.089 132.592 614.915 131.031C617.742 129.47 620.31 127.182 622.473 124.297C624.636 121.413 626.352 117.989 627.523 114.22C628.694 110.452 629.296 106.412 629.296 102.333H631Z" stroke="#003249" stroke-width="6" mask="url(#path-1-inside-1_756_8)"/>
<mask id="path-2-inside-2_756_8" fill="white">
<path d="M631 171.333C631 175.711 630.353 180.045 629.097 184.089C627.841 188.134 625.999 191.808 623.678 194.904C621.356 197.999 618.6 200.454 615.567 202.129C612.534 203.804 609.283 204.667 606 204.667C602.717 204.667 599.466 203.804 596.433 202.129C593.4 200.454 590.644 197.999 588.322 194.904C586.001 191.808 584.159 188.134 582.903 184.089C581.647 180.045 581 175.711 581 171.333H582.704C582.704 175.412 583.306 179.452 584.477 183.22C585.648 186.989 587.364 190.413 589.527 193.297C591.69 196.182 594.258 198.47 597.085 200.031C599.911 201.592 602.941 202.395 606 202.395C609.059 202.395 612.089 201.592 614.915 200.031C617.742 198.47 620.31 196.182 622.473 193.297C624.636 190.413 626.352 186.989 627.523 183.22C628.694 179.452 629.296 175.412 629.296 171.333H631Z"/>
</mask>
<path d="M631 171.333C631 175.711 630.353 180.045 629.097 184.089C627.841 188.134 625.999 191.808 623.678 194.904C621.356 197.999 618.6 200.454 615.567 202.129C612.534 203.804 609.283 204.667 606 204.667C602.717 204.667 599.466 203.804 596.433 202.129C593.4 200.454 590.644 197.999 588.322 194.904C586.001 191.808 584.159 188.134 582.903 184.089C581.647 180.045 581 175.711 581 171.333H582.704C582.704 175.412 583.306 179.452 584.477 183.22C585.648 186.989 587.364 190.413 589.527 193.297C591.69 196.182 594.258 198.47 597.085 200.031C599.911 201.592 602.941 202.395 606 202.395C609.059 202.395 612.089 201.592 614.915 200.031C617.742 198.47 620.31 196.182 622.473 193.297C624.636 190.413 626.352 186.989 627.523 183.22C628.694 179.452 629.296 175.412 629.296 171.333H631Z" stroke="#003249" stroke-width="6" mask="url(#path-2-inside-2_756_8)"/>
<line x1="582" y1="254" x2="632" y2="254" stroke="#003249" stroke-width="2"/>
<mask id="path-4-inside-3_756_8" fill="white">
<path d="M559 33.3333C559 37.7107 558.353 42.0453 557.097 46.0894C555.841 50.1336 553.999 53.8083 551.678 56.9036C549.356 59.9988 546.6 62.4542 543.567 64.1293C540.534 65.8045 537.283 66.6667 534 66.6667C530.717 66.6667 527.466 65.8045 524.433 64.1293C521.4 62.4542 518.644 59.9988 516.322 56.9036C514.001 53.8083 512.159 50.1336 510.903 46.0894C509.647 42.0453 509 37.7107 509 33.3333L510.704 33.3333C510.704 37.4124 511.306 41.4516 512.477 45.2202C513.648 48.9888 515.364 52.413 517.527 55.2974C519.69 58.1818 522.258 60.4698 525.085 62.0308C527.911 63.5918 530.941 64.3952 534 64.3952C537.059 64.3952 540.089 63.5918 542.915 62.0308C545.742 60.4698 548.31 58.1818 550.473 55.2974C552.636 52.413 554.352 48.9888 555.523 45.2202C556.694 41.4516 557.296 37.4124 557.296 33.3333H559Z"/>
</mask>
<path d="M559 33.3333C559 37.7107 558.353 42.0453 557.097 46.0894C555.841 50.1336 553.999 53.8083 551.678 56.9036C549.356 59.9988 546.6 62.4542 543.567 64.1293C540.534 65.8045 537.283 66.6667 534 66.6667C530.717 66.6667 527.466 65.8045 524.433 64.1293C521.4 62.4542 518.644 59.9988 516.322 56.9036C514.001 53.8083 512.159 50.1336 510.903 46.0894C509.647 42.0453 509 37.7107 509 33.3333L510.704 33.3333C510.704 37.4124 511.306 41.4516 512.477 45.2202C513.648 48.9888 515.364 52.413 517.527 55.2974C519.69 58.1818 522.258 60.4698 525.085 62.0308C527.911 63.5918 530.941 64.3952 534 64.3952C537.059 64.3952 540.089 63.5918 542.915 62.0308C545.742 60.4698 548.31 58.1818 550.473 55.2974C552.636 52.413 554.352 48.9888 555.523 45.2202C556.694 41.4516 557.296 37.4124 557.296 33.3333H559Z" stroke="#003249" stroke-width="6" mask="url(#path-4-inside-3_756_8)"/>
<mask id="path-5-inside-4_756_8" fill="white">
<path d="M559 171.333C559 175.711 558.353 180.045 557.097 184.089C555.841 188.134 553.999 191.808 551.678 194.904C549.356 197.999 546.6 200.454 543.567 202.129C540.534 203.804 537.283 204.667 534 204.667C530.717 204.667 527.466 203.804 524.433 202.129C521.4 200.454 518.644 197.999 516.322 194.904C514.001 191.808 512.159 188.134 510.903 184.089C509.647 180.045 509 175.711 509 171.333L510.704 171.333C510.704 175.412 511.306 179.452 512.477 183.22C513.648 186.989 515.364 190.413 517.527 193.297C519.69 196.182 522.258 198.47 525.085 200.031C527.911 201.592 530.941 202.395 534 202.395C537.059 202.395 540.089 201.592 542.915 200.031C545.742 198.47 548.31 196.182 550.473 193.297C552.636 190.413 554.352 186.989 555.523 183.22C556.694 179.452 557.296 175.412 557.296 171.333H559Z"/>
</mask>
<path d="M559 171.333C559 175.711 558.353 180.045 557.097 184.089C555.841 188.134 553.999 191.808 551.678 194.904C549.356 197.999 546.6 200.454 543.567 202.129C540.534 203.804 537.283 204.667 534 204.667C530.717 204.667 527.466 203.804 524.433 202.129C521.4 200.454 518.644 197.999 516.322 194.904C514.001 191.808 512.159 188.134 510.903 184.089C509.647 180.045 509 175.711 509 171.333L510.704 171.333C510.704 175.412 511.306 179.452 512.477 183.22C513.648 186.989 515.364 190.413 517.527 193.297C519.69 196.182 522.258 198.47 525.085 200.031C527.911 201.592 530.941 202.395 534 202.395C537.059 202.395 540.089 201.592 542.915 200.031C545.742 198.47 548.31 196.182 550.473 193.297C552.636 190.413 554.352 186.989 555.523 183.22C556.694 179.452 557.296 175.412 557.296 171.333H559Z" stroke="#003249" stroke-width="6" mask="url(#path-5-inside-4_756_8)"/>
<line x1="509" y1="119" x2="559" y2="119" stroke="#003249" stroke-width="2"/>
<line x1="509" y1="254" x2="559" y2="254" stroke="#003249" stroke-width="2"/>
<path d="M93.94 337L88.56 330.02L89.76 329.3L95.64 337H93.94ZM84.36 337V323H85.8V337H84.36ZM85.36 330.58V329.28H89.74V330.58H85.36ZM89.88 330.16L88.52 329.92L93.74 323H95.34L89.88 330.16ZM103.288 337.1C102.381 337.1 101.561 336.893 100.828 336.48C100.094 336.053 99.5077 335.447 99.0677 334.66C98.641 333.86 98.4277 332.887 98.4277 331.74C98.4277 330.593 98.641 329.627 99.0677 328.84C99.4943 328.04 100.074 327.433 100.808 327.02C101.541 326.607 102.368 326.4 103.288 326.4C104.288 326.4 105.181 326.627 105.968 327.08C106.768 327.52 107.394 328.147 107.848 328.96C108.301 329.76 108.528 330.687 108.528 331.74C108.528 332.807 108.301 333.74 107.848 334.54C107.394 335.34 106.768 335.967 105.968 336.42C105.181 336.873 104.288 337.1 103.288 337.1ZM97.8677 340.88V326.5H99.2277V329.66L99.0877 331.76L99.2877 333.88V340.88H97.8677ZM103.188 335.84C103.934 335.84 104.601 335.673 105.188 335.34C105.774 334.993 106.241 334.513 106.588 333.9C106.934 333.273 107.108 332.553 107.108 331.74C107.108 330.927 106.934 330.213 106.588 329.6C106.241 328.987 105.774 328.507 105.188 328.16C104.601 327.813 103.934 327.64 103.188 327.64C102.441 327.64 101.768 327.813 101.168 328.16C100.581 328.507 100.114 328.987 99.7677 329.6C99.4343 330.213 99.2677 330.927 99.2677 331.74C99.2677 332.553 99.4343 333.273 99.7677 333.9C100.114 334.513 100.581 334.993 101.168 335.34C101.768 335.673 102.441 335.84 103.188 335.84ZM118.04 337V334.68L117.98 334.3V330.42C117.98 329.527 117.727 328.84 117.22 328.36C116.727 327.88 115.987 327.64 115 327.64C114.32 327.64 113.673 327.753 113.06 327.98C112.447 328.207 111.927 328.507 111.5 328.88L110.86 327.82C111.393 327.367 112.033 327.02 112.78 326.78C113.527 326.527 114.313 326.4 115.14 326.4C116.5 326.4 117.547 326.74 118.28 327.42C119.027 328.087 119.4 329.107 119.4 330.48V337H118.04ZM114.42 337.1C113.633 337.1 112.947 336.973 112.36 336.72C111.787 336.453 111.347 336.093 111.04 335.64C110.733 335.173 110.58 334.64 110.58 334.04C110.58 333.493 110.707 333 110.96 332.56C111.227 332.107 111.653 331.747 112.24 331.48C112.84 331.2 113.64 331.06 114.64 331.06H118.26V332.12H114.68C113.667 332.12 112.96 332.3 112.56 332.66C112.173 333.02 111.98 333.467 111.98 334C111.98 334.6 112.213 335.08 112.68 335.44C113.147 335.8 113.8 335.98 114.64 335.98C115.44 335.98 116.127 335.8 116.7 335.44C117.287 335.067 117.713 334.533 117.98 333.84L118.3 334.82C118.033 335.513 117.567 336.067 116.9 336.48C116.247 336.893 115.42 337.1 114.42 337.1ZM125.18 337V327.36L125.54 327.74H121.2V326.5H130.58V327.74H126.24L126.6 327.36V337H125.18ZM140.333 337L136.013 331.8L137.193 331.1L142.013 337H140.333ZM132.633 337V326.5H134.053V337H132.633ZM133.613 332.32V331.1H136.993V332.32H133.613ZM137.313 331.9L135.993 331.7L140.173 326.5H141.713L137.313 331.9ZM144.254 337V326.5H145.674V334.84L152.694 326.5H153.954V337H152.534V328.64L145.534 337H144.254ZM158.024 337V326.5H159.444V334.84L166.464 326.5H167.724V337H166.304V328.64L159.304 337H158.024ZM162.784 324.98C161.904 324.98 161.191 324.76 160.644 324.32C160.111 323.867 159.831 323.22 159.804 322.38H160.824C160.837 322.913 161.024 323.333 161.384 323.64C161.744 323.947 162.211 324.1 162.784 324.1C163.357 324.1 163.824 323.947 164.184 323.64C164.557 323.333 164.751 322.913 164.764 322.38H165.784C165.771 323.22 165.491 323.867 164.944 324.32C164.397 324.76 163.677 324.98 162.784 324.98ZM179.408 340.88C178.674 339.667 178.101 338.267 177.688 336.68C177.288 335.08 177.088 333.36 177.088 331.52C177.088 329.68 177.288 327.96 177.688 326.36C178.101 324.747 178.674 323.347 179.408 322.16H180.768C179.981 323.533 179.401 324.993 179.028 326.54C178.668 328.073 178.488 329.733 178.488 331.52C178.488 333.307 178.668 334.973 179.028 336.52C179.401 338.053 179.981 339.507 180.768 340.88H179.408ZM188.33 337.12C187.477 337.12 186.717 336.98 186.05 336.7C185.397 336.42 184.837 335.993 184.37 335.42C183.903 334.847 183.55 334.14 183.31 333.3C183.07 332.447 182.95 331.46 182.95 330.34C182.95 329.34 183.043 328.467 183.23 327.72C183.417 326.96 183.677 326.307 184.01 325.76C184.343 325.213 184.73 324.753 185.17 324.38C185.623 323.993 186.11 323.687 186.63 323.46C187.163 323.22 187.71 323.04 188.27 322.92L192.99 321.82L193.23 323.14L188.79 324.14C188.51 324.207 188.17 324.3 187.77 324.42C187.383 324.54 186.983 324.72 186.57 324.96C186.17 325.2 185.797 325.533 185.45 325.96C185.103 326.387 184.823 326.94 184.61 327.62C184.41 328.287 184.31 329.12 184.31 330.12C184.31 330.333 184.317 330.507 184.33 330.64C184.343 330.76 184.357 330.893 184.37 331.04C184.397 331.173 184.417 331.373 184.43 331.64L183.81 331.12C183.957 330.307 184.257 329.6 184.71 329C185.163 328.387 185.73 327.913 186.41 327.58C187.103 327.233 187.87 327.06 188.71 327.06C189.683 327.06 190.55 327.273 191.31 327.7C192.07 328.113 192.663 328.693 193.09 329.44C193.53 330.187 193.75 331.053 193.75 332.04C193.75 333.013 193.523 333.887 193.07 334.66C192.63 335.433 192.003 336.04 191.19 336.48C190.377 336.907 189.423 337.12 188.33 337.12ZM188.49 335.94C189.237 335.94 189.897 335.773 190.47 335.44C191.043 335.093 191.49 334.627 191.81 334.04C192.143 333.453 192.31 332.793 192.31 332.06C192.31 331.34 192.143 330.7 191.81 330.14C191.49 329.58 191.043 329.14 190.47 328.82C189.897 328.487 189.23 328.32 188.47 328.32C187.723 328.32 187.063 328.48 186.49 328.8C185.917 329.107 185.463 329.54 185.13 330.1C184.81 330.66 184.65 331.307 184.65 332.04C184.65 332.773 184.81 333.433 185.13 334.02C185.463 334.607 185.917 335.073 186.49 335.42C187.077 335.767 187.743 335.94 188.49 335.94ZM201.293 337.1C200.2 337.1 199.24 336.873 198.413 336.42C197.587 335.953 196.94 335.32 196.473 334.52C196.007 333.707 195.773 332.78 195.773 331.74C195.773 330.7 195.993 329.78 196.433 328.98C196.887 328.18 197.5 327.553 198.273 327.1C199.06 326.633 199.94 326.4 200.913 326.4C201.9 326.4 202.773 326.627 203.533 327.08C204.307 327.52 204.913 328.147 205.353 328.96C205.793 329.76 206.013 330.687 206.013 331.74C206.013 331.807 206.007 331.88 205.993 331.96C205.993 332.027 205.993 332.1 205.993 332.18H196.853V331.12H205.233L204.673 331.54C204.673 330.78 204.507 330.107 204.173 329.52C203.853 328.92 203.413 328.453 202.853 328.12C202.293 327.787 201.647 327.62 200.913 327.62C200.193 327.62 199.547 327.787 198.973 328.12C198.4 328.453 197.953 328.92 197.633 329.52C197.313 330.12 197.153 330.807 197.153 331.58V331.8C197.153 332.6 197.327 333.307 197.673 333.92C198.033 334.52 198.527 334.993 199.153 335.34C199.793 335.673 200.52 335.84 201.333 335.84C201.973 335.84 202.567 335.727 203.113 335.5C203.673 335.273 204.153 334.927 204.553 334.46L205.353 335.38C204.887 335.94 204.3 336.367 203.593 336.66C202.9 336.953 202.133 337.1 201.293 337.1ZM211.684 337.12C212.55 337.12 213.33 336.987 214.024 336.72C214.73 336.453 215.29 336.087 215.704 335.62C216.117 335.14 216.324 334.587 216.324 333.96C216.324 333.16 215.984 332.527 215.304 332.06C214.637 331.593 213.704 331.36 212.504 331.36L212.444 331.74C213.124 331.74 213.73 331.633 214.264 331.42C214.797 331.207 215.224 330.907 215.544 330.52C215.864 330.133 216.024 329.68 216.024 329.16C216.024 328.573 215.824 328.073 215.424 327.66C215.024 327.233 214.484 326.907 213.804 326.68C213.137 326.453 212.384 326.353 211.544 326.38C210.93 326.38 210.317 326.467 209.704 326.64C209.104 326.8 208.497 327.04 207.884 327.36L208.284 328.46C208.83 328.18 209.384 327.973 209.944 327.84C210.504 327.693 211.044 327.613 211.564 327.6C212.137 327.6 212.65 327.667 213.104 327.8C213.557 327.933 213.91 328.133 214.164 328.4C214.43 328.667 214.564 328.987 214.564 329.36C214.564 329.707 214.45 330.007 214.224 330.26C214.01 330.513 213.704 330.707 213.304 330.84C212.904 330.973 212.444 331.04 211.924 331.04H210.224V332.08H212.024C212.904 332.08 213.597 332.24 214.104 332.56C214.61 332.867 214.864 333.3 214.864 333.86C214.864 334.247 214.73 334.593 214.464 334.9C214.197 335.207 213.824 335.447 213.344 335.62C212.864 335.793 212.297 335.887 211.644 335.9C210.99 335.9 210.33 335.807 209.664 335.62C208.997 335.42 208.41 335.133 207.904 334.76L207.444 335.82C208.017 336.26 208.677 336.587 209.424 336.8C210.17 337.013 210.924 337.12 211.684 337.12ZM219.727 340.98C219.234 340.98 218.761 340.9 218.307 340.74C217.867 340.58 217.487 340.34 217.167 340.02L217.827 338.96C218.094 339.213 218.381 339.407 218.687 339.54C219.007 339.687 219.361 339.76 219.747 339.76C220.214 339.76 220.614 339.627 220.947 339.36C221.294 339.107 221.621 338.653 221.927 338L222.607 336.46L222.767 336.24L227.087 326.5H228.487L223.227 338.26C222.934 338.94 222.607 339.48 222.247 339.88C221.901 340.28 221.521 340.56 221.107 340.72C220.694 340.893 220.234 340.98 219.727 340.98ZM222.527 337.3L217.687 326.5H219.167L223.447 336.14L222.527 337.3ZM237.431 336.32V327.74H232.371L232.251 330.08C232.224 330.787 232.178 331.48 232.111 332.16C232.058 332.84 231.958 333.467 231.811 334.04C231.678 334.6 231.484 335.06 231.231 335.42C230.978 335.767 230.651 335.967 230.251 336.02L228.831 335.76C229.244 335.773 229.584 335.627 229.851 335.32C230.118 335 230.324 334.567 230.471 334.02C230.618 333.473 230.724 332.853 230.791 332.16C230.858 331.453 230.911 330.733 230.951 330L231.091 326.5H238.851V336.32H237.431ZM228.391 339.54V335.76H240.491V339.54H239.151V337H229.731V339.54H228.391ZM249.778 337V334.68L249.718 334.3V330.42C249.718 329.527 249.465 328.84 248.958 328.36C248.465 327.88 247.725 327.64 246.738 327.64C246.058 327.64 245.412 327.753 244.798 327.98C244.185 328.207 243.665 328.507 243.238 328.88L242.598 327.82C243.132 327.367 243.772 327.02 244.518 326.78C245.265 326.527 246.052 326.4 246.878 326.4C248.238 326.4 249.285 326.74 250.018 327.42C250.765 328.087 251.138 329.107 251.138 330.48V337H249.778ZM246.158 337.1C245.372 337.1 244.685 336.973 244.098 336.72C243.525 336.453 243.085 336.093 242.778 335.64C242.472 335.173 242.318 334.64 242.318 334.04C242.318 333.493 242.445 333 242.698 332.56C242.965 332.107 243.392 331.747 243.978 331.48C244.578 331.2 245.378 331.06 246.378 331.06H249.998V332.12H246.418C245.405 332.12 244.698 332.3 244.298 332.66C243.912 333.02 243.718 333.467 243.718 334C243.718 334.6 243.952 335.08 244.418 335.44C244.885 335.8 245.538 335.98 246.378 335.98C247.178 335.98 247.865 335.8 248.438 335.44C249.025 335.067 249.452 334.533 249.718 333.84L250.038 334.82C249.772 335.513 249.305 336.067 248.638 336.48C247.985 336.893 247.158 337.1 246.158 337.1ZM260.338 337.1C259.432 337.1 258.612 336.893 257.878 336.48C257.145 336.053 256.558 335.447 256.118 334.66C255.692 333.86 255.478 332.887 255.478 331.74C255.478 330.593 255.692 329.627 256.118 328.84C256.545 328.04 257.125 327.433 257.858 327.02C258.592 326.607 259.418 326.4 260.338 326.4C261.338 326.4 262.232 326.627 263.018 327.08C263.818 327.52 264.445 328.147 264.898 328.96C265.352 329.76 265.578 330.687 265.578 331.74C265.578 332.807 265.352 333.74 264.898 334.54C264.445 335.34 263.818 335.967 263.018 336.42C262.232 336.873 261.338 337.1 260.338 337.1ZM254.918 340.88V326.5H256.278V329.66L256.138 331.76L256.338 333.88V340.88H254.918ZM260.238 335.84C260.985 335.84 261.652 335.673 262.238 335.34C262.825 334.993 263.292 334.513 263.638 333.9C263.985 333.273 264.158 332.553 264.158 331.74C264.158 330.927 263.985 330.213 263.638 329.6C263.292 328.987 262.825 328.507 262.238 328.16C261.652 327.813 260.985 327.64 260.238 327.64C259.492 327.64 258.818 327.813 258.218 328.16C257.632 328.507 257.165 328.987 256.818 329.6C256.485 330.213 256.318 330.927 256.318 331.74C256.318 332.553 256.485 333.273 256.818 333.9C257.165 334.513 257.632 334.993 258.218 335.34C258.818 335.673 259.492 335.84 260.238 335.84ZM268.629 337V326.5H270.049V331.14H276.669V326.5H278.089V337H276.669V332.36H270.049V337H268.629ZM292.365 337V326.5H293.785V337H292.365ZM286.545 330.2C287.865 330.213 288.872 330.507 289.565 331.08C290.259 331.653 290.605 332.48 290.605 333.56C290.605 334.68 290.232 335.54 289.485 336.14C288.739 336.74 287.672 337.033 286.285 337.02L282.125 337V326.5H283.545V330.16L286.545 330.2ZM286.185 335.94C287.172 335.953 287.912 335.76 288.405 335.36C288.912 334.947 289.165 334.347 289.165 333.56C289.165 332.773 288.919 332.2 288.425 331.84C287.932 331.467 287.185 331.273 286.185 331.26L283.545 331.22V335.9L286.185 335.94ZM297.829 337V326.5H299.249V334.84L306.269 326.5H307.529V337H306.109V328.64L299.109 337H297.829ZM302.589 324.98C301.709 324.98 300.995 324.76 300.449 324.32C299.915 323.867 299.635 323.22 299.609 322.38H300.629C300.642 322.913 300.829 323.333 301.189 323.64C301.549 323.947 302.015 324.1 302.589 324.1C303.162 324.1 303.629 323.947 303.989 323.64C304.362 323.333 304.555 322.913 304.569 322.38H305.589C305.575 323.22 305.295 323.867 304.749 324.32C304.202 324.76 303.482 324.98 302.589 324.98ZM311.738 340.88H310.378C311.178 339.507 311.758 338.053 312.118 336.52C312.491 334.973 312.678 333.307 312.678 331.52C312.678 329.733 312.491 328.073 312.118 326.54C311.758 324.993 311.178 323.533 310.378 322.16H311.738C312.498 323.347 313.078 324.747 313.478 326.36C313.878 327.96 314.078 329.68 314.078 331.52C314.078 333.36 313.878 335.08 313.478 336.68C313.078 338.267 312.498 339.667 311.738 340.88ZM327.815 337.1C326.775 337.1 325.841 336.873 325.015 336.42C324.201 335.953 323.561 335.32 323.095 334.52C322.628 333.707 322.395 332.78 322.395 331.74C322.395 330.687 322.628 329.76 323.095 328.96C323.561 328.16 324.201 327.533 325.015 327.08C325.841 326.627 326.775 326.4 327.815 326.4C328.708 326.4 329.515 326.573 330.235 326.92C330.955 327.267 331.521 327.787 331.935 328.48L330.875 329.2C330.515 328.667 330.068 328.273 329.535 328.02C329.001 327.767 328.421 327.64 327.795 327.64C327.048 327.64 326.375 327.813 325.775 328.16C325.175 328.493 324.701 328.967 324.355 329.58C324.008 330.193 323.835 330.913 323.835 331.74C323.835 332.567 324.008 333.287 324.355 333.9C324.701 334.513 325.175 334.993 325.775 335.34C326.375 335.673 327.048 335.84 327.795 335.84C328.421 335.84 329.001 335.713 329.535 335.46C330.068 335.207 330.515 334.82 330.875 334.3L331.935 335.02C331.521 335.7 330.955 336.22 330.235 336.58C329.515 336.927 328.708 337.1 327.815 337.1ZM332.413 336.98L332.513 335.76C332.606 335.773 332.693 335.793 332.773 335.82C332.866 335.833 332.946 335.84 333.013 335.84C333.439 335.84 333.779 335.68 334.033 335.36C334.299 335.04 334.499 334.613 334.633 334.08C334.766 333.547 334.859 332.947 334.913 332.28C334.966 331.6 335.013 330.92 335.053 330.24L335.233 326.5H342.933V337H341.513V327.32L341.873 327.74H336.153L336.493 327.3L336.333 330.34C336.293 331.247 336.219 332.113 336.113 332.94C336.019 333.767 335.866 334.493 335.653 335.12C335.453 335.747 335.173 336.24 334.812 336.6C334.453 336.947 333.993 337.12 333.433 337.12C333.273 337.12 333.106 337.107 332.933 337.08C332.773 337.053 332.599 337.02 332.413 336.98ZM351.289 337.1C350.276 337.1 349.363 336.873 348.549 336.42C347.749 335.953 347.116 335.32 346.649 334.52C346.183 333.707 345.949 332.78 345.949 331.74C345.949 330.687 346.183 329.76 346.649 328.96C347.116 328.16 347.749 327.533 348.549 327.08C349.349 326.627 350.263 326.4 351.289 326.4C352.329 326.4 353.249 326.627 354.049 327.08C354.863 327.533 355.496 328.16 355.949 328.96C356.416 329.76 356.649 330.687 356.649 331.74C356.649 332.78 356.416 333.707 355.949 334.52C355.496 335.32 354.863 335.953 354.049 336.42C353.236 336.873 352.316 337.1 351.289 337.1ZM351.289 335.84C352.049 335.84 352.723 335.673 353.309 335.34C353.896 334.993 354.356 334.513 354.689 333.9C355.036 333.273 355.209 332.553 355.209 331.74C355.209 330.913 355.036 330.193 354.689 329.58C354.356 328.967 353.896 328.493 353.309 328.16C352.723 327.813 352.056 327.64 351.309 327.64C350.563 327.64 349.896 327.813 349.309 328.16C348.723 328.493 348.256 328.967 347.909 329.58C347.563 330.193 347.389 330.913 347.389 331.74C347.389 332.553 347.563 333.273 347.909 333.9C348.256 334.513 348.723 334.993 349.309 335.34C349.896 335.673 350.556 335.84 351.289 335.84ZM359.684 337V326.5H367.124V327.74H360.744L361.104 327.38V337H359.684Z" fill="#003249"/>
<path d="M93.66 391.3V379.28H86.96L86.84 382.68C86.8 383.733 86.7333 384.747 86.64 385.72C86.56 386.68 86.4267 387.547 86.24 388.32C86.0667 389.08 85.8267 389.7 85.52 390.18C85.2267 390.66 84.84 390.94 84.36 391.02L82.74 390.72C83.2733 390.747 83.7133 390.553 84.06 390.14C84.42 389.727 84.6933 389.147 84.88 388.4C85.08 387.653 85.2267 386.78 85.32 385.78C85.4133 384.78 85.48 383.7 85.52 382.54L85.68 378H95.12V391.3H93.66ZM82.22 395.14L82.24 390.72H97.22V395.14H95.84V392H83.62L83.6 395.14H82.22ZM103.926 392.1C102.913 392.1 101.999 391.873 101.186 391.42C100.386 390.953 99.7526 390.32 99.2859 389.52C98.8193 388.707 98.5859 387.78 98.5859 386.74C98.5859 385.687 98.8193 384.76 99.2859 383.96C99.7526 383.16 100.386 382.533 101.186 382.08C101.986 381.627 102.899 381.4 103.926 381.4C104.966 381.4 105.886 381.627 106.686 382.08C107.499 382.533 108.133 383.16 108.586 383.96C109.053 384.76 109.286 385.687 109.286 386.74C109.286 387.78 109.053 388.707 108.586 389.52C108.133 390.32 107.499 390.953 106.686 391.42C105.873 391.873 104.953 392.1 103.926 392.1ZM103.926 390.84C104.686 390.84 105.359 390.673 105.946 390.34C106.533 389.993 106.993 389.513 107.326 388.9C107.673 388.273 107.846 387.553 107.846 386.74C107.846 385.913 107.673 385.193 107.326 384.58C106.993 383.967 106.533 383.493 105.946 383.16C105.359 382.813 104.693 382.64 103.946 382.64C103.199 382.64 102.533 382.813 101.946 383.16C101.359 383.493 100.893 383.967 100.546 384.58C100.199 385.193 100.026 385.913 100.026 386.74C100.026 387.553 100.199 388.273 100.546 388.9C100.893 389.513 101.359 389.993 101.946 390.34C102.533 390.673 103.193 390.84 103.926 390.84ZM110.342 391.98L110.442 390.76C110.536 390.773 110.622 390.793 110.702 390.82C110.796 390.833 110.876 390.84 110.942 390.84C111.369 390.84 111.709 390.68 111.962 390.36C112.229 390.04 112.429 389.613 112.562 389.08C112.696 388.547 112.789 387.947 112.842 387.28C112.896 386.6 112.942 385.92 112.982 385.24L113.162 381.5H120.862V392H119.442V382.32L119.802 382.74H114.082L114.422 382.3L114.262 385.34C114.222 386.247 114.149 387.113 114.042 387.94C113.949 388.767 113.796 389.493 113.582 390.12C113.382 390.747 113.102 391.24 112.742 391.6C112.382 391.947 111.922 392.12 111.362 392.12C111.202 392.12 111.036 392.107 110.862 392.08C110.702 392.053 110.529 392.02 110.342 391.98ZM124.899 392V381.5H132.339V382.74H125.959L126.319 382.38V392H124.899ZM134.391 392V381.5H135.811V389.84L142.831 381.5H144.091V392H142.671V383.64L135.671 392H134.391ZM148.161 392V381.5H149.581V389.84L156.601 381.5H157.861V392H156.441V383.64L149.441 392H148.161ZM152.921 379.98C152.041 379.98 151.327 379.76 150.781 379.32C150.247 378.867 149.967 378.22 149.941 377.38H150.961C150.974 377.913 151.161 378.333 151.521 378.64C151.881 378.947 152.347 379.1 152.921 379.1C153.494 379.1 153.961 378.947 154.321 378.64C154.694 378.333 154.887 377.913 154.901 377.38H155.921C155.907 378.22 155.627 378.867 155.081 379.32C154.534 379.76 153.814 379.98 152.921 379.98ZM169.545 395.88C168.811 394.667 168.238 393.267 167.825 391.68C167.425 390.08 167.225 388.36 167.225 386.52C167.225 384.68 167.425 382.96 167.825 381.36C168.238 379.747 168.811 378.347 169.545 377.16H170.905C170.118 378.533 169.538 379.993 169.165 381.54C168.805 383.073 168.625 384.733 168.625 386.52C168.625 388.307 168.805 389.973 169.165 391.52C169.538 393.053 170.118 394.507 170.905 395.88H169.545ZM173.927 395.98C173.433 395.98 172.96 395.9 172.507 395.74C172.067 395.58 171.687 395.34 171.367 395.02L172.027 393.96C172.293 394.213 172.58 394.407 172.887 394.54C173.207 394.687 173.56 394.76 173.947 394.76C174.413 394.76 174.813 394.627 175.147 394.36C175.493 394.107 175.82 393.653 176.127 393L176.807 391.46L176.967 391.24L181.287 381.5H182.687L177.427 393.26C177.133 393.94 176.807 394.48 176.447 394.88C176.1 395.28 175.72 395.56 175.307 395.72C174.893 395.893 174.433 395.98 173.927 395.98ZM176.727 392.3L171.887 381.5H173.367L177.647 391.14L176.727 392.3ZM191.63 391.32V382.74H186.57L186.45 385.08C186.423 385.787 186.377 386.48 186.31 387.16C186.257 387.84 186.157 388.467 186.01 389.04C185.877 389.6 185.683 390.06 185.43 390.42C185.177 390.767 184.85 390.967 184.45 391.02L183.03 390.76C183.443 390.773 183.783 390.627 184.05 390.32C184.317 390 184.523 389.567 184.67 389.02C184.817 388.473 184.923 387.853 184.99 387.16C185.057 386.453 185.11 385.733 185.15 385L185.29 381.5H193.05V391.32H191.63ZM182.59 394.54V390.76H194.69V394.54H193.35V392H183.93V394.54H182.59ZM203.978 392V389.68L203.918 389.3V385.42C203.918 384.527 203.664 383.84 203.158 383.36C202.664 382.88 201.924 382.64 200.938 382.64C200.258 382.64 199.611 382.753 198.998 382.98C198.384 383.207 197.864 383.507 197.438 383.88L196.798 382.82C197.331 382.367 197.971 382.02 198.718 381.78C199.464 381.527 200.251 381.4 201.078 381.4C202.438 381.4 203.484 381.74 204.218 382.42C204.964 383.087 205.338 384.107 205.338 385.48V392H203.978ZM200.358 392.1C199.571 392.1 198.884 391.973 198.298 391.72C197.724 391.453 197.284 391.093 196.978 390.64C196.671 390.173 196.518 389.64 196.518 389.04C196.518 388.493 196.644 388 196.898 387.56C197.164 387.107 197.591 386.747 198.178 386.48C198.778 386.2 199.578 386.06 200.577 386.06H204.198V387.12H200.618C199.604 387.12 198.898 387.3 198.498 387.66C198.111 388.02 197.918 388.467 197.918 389C197.918 389.6 198.151 390.08 198.618 390.44C199.084 390.8 199.738 390.98 200.577 390.98C201.378 390.98 202.064 390.8 202.638 390.44C203.224 390.067 203.651 389.533 203.918 388.84L204.238 389.82C203.971 390.513 203.504 391.067 202.838 391.48C202.184 391.893 201.358 392.1 200.358 392.1ZM214.538 392.1C213.631 392.1 212.811 391.893 212.078 391.48C211.344 391.053 210.758 390.447 210.318 389.66C209.891 388.86 209.678 387.887 209.678 386.74C209.678 385.593 209.891 384.627 210.318 383.84C210.744 383.04 211.324 382.433 212.058 382.02C212.791 381.607 213.618 381.4 214.538 381.4C215.538 381.4 216.431 381.627 217.218 382.08C218.018 382.52 218.644 383.147 219.098 383.96C219.551 384.76 219.778 385.687 219.778 386.74C219.778 387.807 219.551 388.74 219.098 389.54C218.644 390.34 218.018 390.967 217.218 391.42C216.431 391.873 215.538 392.1 214.538 392.1ZM209.118 395.88V381.5H210.478V384.66L210.338 386.76L210.538 388.88V395.88H209.118ZM214.438 390.84C215.184 390.84 215.851 390.673 216.438 390.34C217.024 389.993 217.491 389.513 217.838 388.9C218.184 388.273 218.358 387.553 218.358 386.74C218.358 385.927 218.184 385.213 217.838 384.6C217.491 383.987 217.024 383.507 216.438 383.16C215.851 382.813 215.184 382.64 214.438 382.64C213.691 382.64 213.018 382.813 212.418 383.16C211.831 383.507 211.364 383.987 211.018 384.6C210.684 385.213 210.518 385.927 210.518 386.74C210.518 387.553 210.684 388.273 211.018 388.9C211.364 389.513 211.831 389.993 212.418 390.34C213.018 390.673 213.691 390.84 214.438 390.84ZM222.829 392V381.5H224.249V386.14H230.869V381.5H232.289V392H230.869V387.36H224.249V392H222.829ZM246.565 392V381.5H247.985V392H246.565ZM240.745 385.2C242.065 385.213 243.071 385.507 243.765 386.08C244.458 386.653 244.805 387.48 244.805 388.56C244.805 389.68 244.431 390.54 243.685 391.14C242.938 391.74 241.871 392.033 240.485 392.02L236.325 392V381.5H237.745V385.16L240.745 385.2ZM240.385 390.94C241.371 390.953 242.111 390.76 242.605 390.36C243.111 389.947 243.365 389.347 243.365 388.56C243.365 387.773 243.118 387.2 242.625 386.84C242.131 386.467 241.385 386.273 240.385 386.26L237.745 386.22V390.9L240.385 390.94ZM252.028 392V381.5H253.448V389.84L260.468 381.5H261.728V392H260.308V383.64L253.308 392H252.028ZM256.788 379.98C255.908 379.98 255.194 379.76 254.648 379.32C254.114 378.867 253.834 378.22 253.808 377.38H254.828C254.841 377.913 255.028 378.333 255.388 378.64C255.748 378.947 256.214 379.1 256.788 379.1C257.361 379.1 257.828 378.947 258.188 378.64C258.561 378.333 258.754 377.913 258.768 377.38H259.788C259.774 378.22 259.494 378.867 258.948 379.32C258.401 379.76 257.681 379.98 256.788 379.98ZM265.937 395.88H264.577C265.377 394.507 265.957 393.053 266.317 391.52C266.691 389.973 266.877 388.307 266.877 386.52C266.877 384.733 266.691 383.073 266.317 381.54C265.957 379.993 265.377 378.533 264.577 377.16H265.937C266.697 378.347 267.277 379.747 267.677 381.36C268.077 382.96 268.277 384.68 268.277 386.52C268.277 388.36 268.077 390.08 267.677 391.68C267.277 393.267 266.697 394.667 265.937 395.88ZM282.014 392.1C280.974 392.1 280.04 391.873 279.214 391.42C278.4 390.953 277.76 390.32 277.294 389.52C276.827 388.707 276.594 387.78 276.594 386.74C276.594 385.687 276.827 384.76 277.294 383.96C277.76 383.16 278.4 382.533 279.214 382.08C280.04 381.627 280.974 381.4 282.014 381.4C282.907 381.4 283.714 381.573 284.434 381.92C285.154 382.267 285.72 382.787 286.134 383.48L285.074 384.2C284.714 383.667 284.267 383.273 283.734 383.02C283.2 382.767 282.62 382.64 281.994 382.64C281.247 382.64 280.574 382.813 279.974 383.16C279.374 383.493 278.9 383.967 278.554 384.58C278.207 385.193 278.034 385.913 278.034 386.74C278.034 387.567 278.207 388.287 278.554 388.9C278.9 389.513 279.374 389.993 279.974 390.34C280.574 390.673 281.247 390.84 281.994 390.84C282.62 390.84 283.2 390.713 283.734 390.46C284.267 390.207 284.714 389.82 285.074 389.3L286.134 390.02C285.72 390.7 285.154 391.22 284.434 391.58C283.714 391.927 282.907 392.1 282.014 392.1ZM286.612 391.98L286.712 390.76C286.805 390.773 286.892 390.793 286.972 390.82C287.065 390.833 287.145 390.84 287.212 390.84C287.638 390.84 287.978 390.68 288.232 390.36C288.498 390.04 288.698 389.613 288.832 389.08C288.965 388.547 289.058 387.947 289.112 387.28C289.165 386.6 289.212 385.92 289.252 385.24L289.432 381.5H297.132V392H295.712V382.32L296.072 382.74H290.352L290.692 382.3L290.532 385.34C290.492 386.247 290.418 387.113 290.312 387.94C290.218 388.767 290.065 389.493 289.852 390.12C289.652 390.747 289.372 391.24 289.012 391.6C288.652 391.947 288.192 392.12 287.632 392.12C287.472 392.12 287.305 392.107 287.132 392.08C286.972 392.053 286.798 392.02 286.612 391.98ZM305.488 392.1C304.475 392.1 303.562 391.873 302.748 391.42C301.948 390.953 301.315 390.32 300.848 389.52C300.382 388.707 300.148 387.78 300.148 386.74C300.148 385.687 300.382 384.76 300.848 383.96C301.315 383.16 301.948 382.533 302.748 382.08C303.548 381.627 304.462 381.4 305.488 381.4C306.528 381.4 307.448 381.627 308.248 382.08C309.062 382.533 309.695 383.16 310.148 383.96C310.615 384.76 310.848 385.687 310.848 386.74C310.848 387.78 310.615 388.707 310.148 389.52C309.695 390.32 309.062 390.953 308.248 391.42C307.435 391.873 306.515 392.1 305.488 392.1ZM305.488 390.84C306.248 390.84 306.922 390.673 307.508 390.34C308.095 389.993 308.555 389.513 308.888 388.9C309.235 388.273 309.408 387.553 309.408 386.74C309.408 385.913 309.235 385.193 308.888 384.58C308.555 383.967 308.095 383.493 307.508 383.16C306.922 382.813 306.255 382.64 305.508 382.64C304.762 382.64 304.095 382.813 303.508 383.16C302.922 383.493 302.455 383.967 302.108 384.58C301.762 385.193 301.588 385.913 301.588 386.74C301.588 387.553 301.762 388.273 302.108 388.9C302.455 389.513 302.922 389.993 303.508 390.34C304.095 390.673 304.755 390.84 305.488 390.84ZM313.883 392V381.5H321.323V382.74H314.943L315.303 382.38V392H313.883Z" fill="#003249"/>
<mask id="path-10-inside-5_756_8" fill="white">
<path d="M51 319.333C51 323.711 50.3534 328.045 49.097 332.089C47.8406 336.134 45.9991 339.808 43.6777 342.904C41.3562 345.999 38.6002 348.454 35.5671 350.129C32.5339 351.804 29.283 352.667 26 352.667C22.717 352.667 19.4661 351.804 16.4329 350.129C13.3998 348.454 10.6438 345.999 8.32233 342.904C6.00086 339.808 4.15938 336.134 2.90301 332.089C1.64664 328.045 1 323.711 1 319.333L2.70359 319.333C2.70359 323.412 3.30617 327.452 4.47693 331.22C5.64768 334.989 7.36368 338.413 9.52695 341.297C11.6902 344.182 14.2584 346.47 17.0848 348.031C19.9113 349.592 22.9407 350.395 26 350.395C29.0593 350.395 32.0887 349.592 34.9151 348.031C37.7416 346.47 40.3098 344.182 42.473 341.297C44.6363 338.413 46.3523 334.989 47.5231 331.22C48.6938 327.452 49.2964 323.412 49.2964 319.333H51Z"/>
</mask>
<path d="M51 319.333C51 323.711 50.3534 328.045 49.097 332.089C47.8406 336.134 45.9991 339.808 43.6777 342.904C41.3562 345.999 38.6002 348.454 35.5671 350.129C32.5339 351.804 29.283 352.667 26 352.667C22.717 352.667 19.4661 351.804 16.4329 350.129C13.3998 348.454 10.6438 345.999 8.32233 342.904C6.00086 339.808 4.15938 336.134 2.90301 332.089C1.64664 328.045 1 323.711 1 319.333L2.70359 319.333C2.70359 323.412 3.30617 327.452 4.47693 331.22C5.64768 334.989 7.36368 338.413 9.52695 341.297C11.6902 344.182 14.2584 346.47 17.0848 348.031C19.9113 349.592 22.9407 350.395 26 350.395C29.0593 350.395 32.0887 349.592 34.9151 348.031C37.7416 346.47 40.3098 344.182 42.473 341.297C44.6363 338.413 46.3523 334.989 47.5231 331.22C48.6938 327.452 49.2964 323.412 49.2964 319.333H51Z" stroke="#003249" stroke-width="6" mask="url(#path-10-inside-5_756_8)"/>
<line x1="1" y1="384" x2="51" y2="384" stroke="#003249" stroke-width="2"/>
<path d="M30.48 51V46.44L31 46.92H26.62C25.4867 46.92 24.5067 46.7267 23.68 46.34C22.8667 45.9533 22.24 45.4 21.8 44.68C21.3733 43.9467 21.16 43.0667 21.16 42.04C21.16 40.9733 21.3933 40.0667 21.86 39.32C22.3267 38.56 22.9867 37.9867 23.84 37.6C24.6933 37.2 25.6867 37 26.82 37H32.44V51H30.48ZM21.16 51L24.62 46.04H26.66L23.28 51H21.16ZM30.48 45.8V38.16L31 38.74H26.9C25.7 38.74 24.78 39.02 24.14 39.58C23.5 40.1267 23.18 40.94 23.18 42.02C23.18 43.0467 23.48 43.84 24.08 44.4C24.6933 44.96 25.5933 45.24 26.78 45.24H31L30.48 45.8ZM36.4889 51V40.4H38.4689L43.0289 48.24H42.2289L46.9089 40.4H48.7089V51H46.9689V42.56L47.2889 42.74L43.0089 49.8H42.1689L37.8689 42.6L38.2489 42.52V51H36.4889ZM57.3459 51.16C56.4659 51.16 55.6859 51.02 55.0059 50.74C54.3393 50.46 53.7659 50.0467 53.2859 49.5C52.8059 48.94 52.4393 48.24 52.1859 47.4C51.9459 46.5467 51.8259 45.5467 51.8259 44.4C51.8259 43.4933 51.9059 42.68 52.0659 41.96C52.2259 41.24 52.4526 40.6 52.7459 40.04C53.0526 39.48 53.4259 38.9933 53.8659 38.58C54.3193 38.1667 54.8259 37.8267 55.3859 37.56C55.9593 37.28 56.5859 37.0667 57.2659 36.92L62.1059 35.84L62.3859 37.62L57.9259 38.58C57.6593 38.6333 57.3393 38.7133 56.9659 38.82C56.5926 38.9267 56.2126 39.0933 55.8259 39.32C55.4393 39.5333 55.0793 39.8333 54.7459 40.22C54.4126 40.6067 54.1459 41.1133 53.9459 41.74C53.7459 42.3533 53.6459 43.1133 53.6459 44.02C53.6459 44.2733 53.6526 44.4667 53.6659 44.6C53.6793 44.7333 53.6926 44.8667 53.7059 45C53.7326 45.1333 53.7526 45.3333 53.7659 45.6L52.9659 44.78C53.1793 44.0467 53.5193 43.4067 53.9859 42.86C54.4526 42.3133 55.0126 41.8933 55.6659 41.6C56.3326 41.2933 57.0593 41.14 57.8459 41.14C58.8326 41.14 59.7059 41.3533 60.4659 41.78C61.2393 42.2067 61.8459 42.7933 62.2859 43.54C62.7259 44.2867 62.9459 45.14 62.9459 46.1C62.9459 47.0733 62.7126 47.9467 62.2459 48.72C61.7926 49.48 61.1459 50.08 60.3059 50.52C59.4659 50.9467 58.4793 51.16 57.3459 51.16ZM57.5259 49.56C58.2059 49.56 58.8059 49.4133 59.3259 49.12C59.8459 48.8133 60.2526 48.4067 60.5459 47.9C60.8393 47.38 60.9859 46.8 60.9859 46.16C60.9859 45.52 60.8393 44.9533 60.5459 44.46C60.2526 43.9667 59.8459 43.58 59.3259 43.3C58.8059 43.0067 58.1926 42.86 57.4859 42.86C56.8193 42.86 56.2193 43 55.6859 43.28C55.1526 43.5467 54.7393 43.9267 54.4459 44.42C54.1526 44.9 54.0059 45.46 54.0059 46.1C54.0059 46.74 54.1526 47.3267 54.4459 47.86C54.7526 48.38 55.1659 48.7933 55.6859 49.1C56.2193 49.4067 56.8326 49.56 57.5259 49.56Z" fill="#003249"/>
<path d="M20.68 106H22.98L26.64 111.12L30.3 106H32.64L27.9 112.72L33.02 120H30.66L26.64 114.42L22.64 120H20.34L25.44 112.8L20.68 106ZM39.1539 120.12C38.0872 120.12 37.1406 119.887 36.3139 119.42C35.4872 118.953 34.8339 118.313 34.3539 117.5C33.8739 116.673 33.6339 115.74 33.6339 114.7C33.6339 113.647 33.8739 112.713 34.3539 111.9C34.8339 111.087 35.4872 110.453 36.3139 110C37.1406 109.533 38.0872 109.3 39.1539 109.3C40.2072 109.3 41.1472 109.533 41.9739 110C42.8139 110.453 43.4672 111.087 43.9339 111.9C44.4139 112.7 44.6539 113.633 44.6539 114.7C44.6539 115.753 44.4139 116.687 43.9339 117.5C43.4672 118.313 42.8139 118.953 41.9739 119.42C41.1472 119.887 40.2072 120.12 39.1539 120.12ZM39.1539 118.44C39.8339 118.44 40.4406 118.287 40.9739 117.98C41.5206 117.673 41.9472 117.24 42.2539 116.68C42.5606 116.107 42.7139 115.447 42.7139 114.7C42.7139 113.94 42.5606 113.287 42.2539 112.74C41.9472 112.18 41.5206 111.747 40.9739 111.44C40.4406 111.133 39.8339 110.98 39.1539 110.98C38.4739 110.98 37.8672 111.133 37.3339 111.44C36.8006 111.747 36.3739 112.18 36.0539 112.74C35.7339 113.287 35.5739 113.94 35.5739 114.7C35.5739 115.447 35.7339 116.107 36.0539 116.68C36.3739 117.24 36.8006 117.673 37.3339 117.98C37.8672 118.287 38.4739 118.44 39.1539 118.44ZM53.0464 120.12C52.1664 120.12 51.3597 119.92 50.6264 119.52C49.9064 119.107 49.3264 118.5 48.8864 117.7C48.4597 116.9 48.2464 115.9 48.2464 114.7C48.2464 113.5 48.4531 112.5 48.8664 111.7C49.2931 110.9 49.8664 110.3 50.5864 109.9C51.3197 109.5 52.1397 109.3 53.0464 109.3C54.0864 109.3 55.0064 109.527 55.8064 109.98C56.6064 110.433 57.2397 111.067 57.7064 111.88C58.1731 112.68 58.4064 113.62 58.4064 114.7C58.4064 115.78 58.1731 116.727 57.7064 117.54C57.2397 118.353 56.6064 118.987 55.8064 119.44C55.0064 119.893 54.0864 120.12 53.0464 120.12ZM47.4264 123.88V109.4H49.2664V112.26L49.1464 114.72L49.3464 117.18V123.88H47.4264ZM52.8864 118.44C53.5664 118.44 54.1731 118.287 54.7064 117.98C55.2531 117.673 55.6797 117.24 55.9864 116.68C56.3064 116.107 56.4664 115.447 56.4664 114.7C56.4664 113.94 56.3064 113.287 55.9864 112.74C55.6797 112.18 55.2531 111.747 54.7064 111.44C54.1731 111.133 53.5664 110.98 52.8864 110.98C52.2197 110.98 51.6131 111.133 51.0664 111.44C50.5331 111.747 50.1064 112.18 49.7864 112.74C49.4797 113.287 49.3264 113.94 49.3264 114.7C49.3264 115.447 49.4797 116.107 49.7864 116.68C50.1064 117.24 50.5331 117.673 51.0664 117.98C51.6131 118.287 52.2197 118.44 52.8864 118.44ZM65.9159 120.12C64.7826 120.12 63.7826 119.887 62.9159 119.42C62.0626 118.953 61.3959 118.313 60.9159 117.5C60.4493 116.687 60.2159 115.753 60.2159 114.7C60.2159 113.647 60.4426 112.713 60.8959 111.9C61.3626 111.087 61.9959 110.453 62.7959 110C63.6093 109.533 64.5226 109.3 65.5359 109.3C66.5626 109.3 67.4693 109.527 68.2559 109.98C69.0426 110.433 69.6559 111.073 70.0959 111.9C70.5493 112.713 70.7759 113.667 70.7759 114.76C70.7759 114.84 70.7693 114.933 70.7559 115.04C70.7559 115.147 70.7493 115.247 70.7359 115.34H61.7159V113.96H69.7359L68.9559 114.44C68.9693 113.76 68.8293 113.153 68.5359 112.62C68.2426 112.087 67.8359 111.673 67.3159 111.38C66.8093 111.073 66.2159 110.92 65.5359 110.92C64.8693 110.92 64.2759 111.073 63.7559 111.38C63.2359 111.673 62.8293 112.093 62.5359 112.64C62.2426 113.173 62.0959 113.787 62.0959 114.48V114.8C62.0959 115.507 62.2559 116.14 62.5759 116.7C62.9093 117.247 63.3693 117.673 63.9559 117.98C64.5426 118.287 65.2159 118.44 65.9759 118.44C66.6026 118.44 67.1693 118.333 67.6759 118.12C68.1959 117.907 68.6493 117.587 69.0359 117.16L70.0959 118.4C69.6159 118.96 69.0159 119.387 68.2959 119.68C67.5893 119.973 66.7959 120.12 65.9159 120.12ZM73.7545 120V109.4H75.6745V117.12L82.1745 109.4H83.9145V120H81.9945V112.28L75.5145 120H73.7545ZM78.7145 108.02C77.7412 108.02 76.9745 107.787 76.4145 107.32C75.8679 106.84 75.5879 106.153 75.5745 105.26H76.8745C76.8879 105.767 77.0545 106.167 77.3745 106.46C77.7079 106.753 78.1479 106.9 78.6945 106.9C79.2412 106.9 79.6812 106.753 80.0145 106.46C80.3479 106.167 80.5212 105.767 80.5345 105.26H81.8745C81.8612 106.153 81.5745 106.84 81.0145 107.32C80.4545 107.787 79.6879 108.02 78.7145 108.02ZM95.4323 123.88C94.6723 122.667 94.0857 121.267 93.6723 119.68C93.259 118.08 93.0523 116.36 93.0523 114.52C93.0523 112.68 93.259 110.96 93.6723 109.36C94.0857 107.747 94.6723 106.347 95.4323 105.16H97.2523C96.4523 106.573 95.8657 108.053 95.4923 109.6C95.119 111.133 94.9323 112.773 94.9323 114.52C94.9323 116.267 95.119 117.913 95.4923 119.46C95.8657 120.993 96.4523 122.467 97.2523 123.88H95.4323ZM101.304 120V110.58L101.784 111.08H97.4238V109.4H107.104V111.08H102.764L103.224 110.58V120H101.304ZM114.687 120.12C113.807 120.12 113 119.92 112.267 119.52C111.547 119.107 110.967 118.5 110.527 117.7C110.1 116.9 109.887 115.9 109.887 114.7C109.887 113.5 110.094 112.5 110.507 111.7C110.934 110.9 111.507 110.3 112.227 109.9C112.96 109.5 113.78 109.3 114.687 109.3C115.727 109.3 116.647 109.527 117.447 109.98C118.247 110.433 118.88 111.067 119.347 111.88C119.814 112.68 120.047 113.62 120.047 114.7C120.047 115.78 119.814 116.727 119.347 117.54C118.88 118.353 118.247 118.987 117.447 119.44C116.647 119.893 115.727 120.12 114.687 120.12ZM109.067 123.88V109.4H110.907V112.26L110.787 114.72L110.987 117.18V123.88H109.067ZM114.527 118.44C115.207 118.44 115.814 118.287 116.347 117.98C116.894 117.673 117.32 117.24 117.627 116.68C117.947 116.107 118.107 115.447 118.107 114.7C118.107 113.94 117.947 113.287 117.627 112.74C117.32 112.18 116.894 111.747 116.347 111.44C115.814 111.133 115.207 110.98 114.527 110.98C113.86 110.98 113.254 111.133 112.707 111.44C112.174 111.747 111.747 112.18 111.427 112.74C111.12 113.287 110.967 113.94 110.967 114.7C110.967 115.447 111.12 116.107 111.427 116.68C111.747 117.24 112.174 117.673 112.707 117.98C113.254 118.287 113.86 118.44 114.527 118.44ZM127.377 120.12C126.31 120.12 125.363 119.887 124.537 119.42C123.71 118.953 123.057 118.313 122.577 117.5C122.097 116.673 121.857 115.74 121.857 114.7C121.857 113.647 122.097 112.713 122.577 111.9C123.057 111.087 123.71 110.453 124.537 110C125.363 109.533 126.31 109.3 127.377 109.3C128.43 109.3 129.37 109.533 130.197 110C131.037 110.453 131.69 111.087 132.157 111.9C132.637 112.7 132.877 113.633 132.877 114.7C132.877 115.753 132.637 116.687 132.157 117.5C131.69 118.313 131.037 118.953 130.197 119.42C129.37 119.887 128.43 120.12 127.377 120.12ZM127.377 118.44C128.057 118.44 128.663 118.287 129.197 117.98C129.743 117.673 130.17 117.24 130.477 116.68C130.783 116.107 130.937 115.447 130.937 114.7C130.937 113.94 130.783 113.287 130.477 112.74C130.17 112.18 129.743 111.747 129.197 111.44C128.663 111.133 128.057 110.98 127.377 110.98C126.697 110.98 126.09 111.133 125.557 111.44C125.023 111.747 124.597 112.18 124.277 112.74C123.957 113.287 123.797 113.94 123.797 114.7C123.797 115.447 123.957 116.107 124.277 116.68C124.597 117.24 125.023 117.673 125.557 117.98C126.09 118.287 126.697 118.44 127.377 118.44ZM133.618 120L138.178 114.08L138.158 115.06L133.818 109.4H135.958L139.278 113.76H138.458L141.778 109.4H143.878L139.478 115.1L139.498 114.08L144.098 120H141.918L138.418 115.36L139.198 115.48L135.758 120H133.618ZM150.486 120.12C149.353 120.12 148.353 119.887 147.486 119.42C146.633 118.953 145.966 118.313 145.486 117.5C145.02 116.687 144.786 115.753 144.786 114.7C144.786 113.647 145.013 112.713 145.466 111.9C145.933 111.087 146.566 110.453 147.366 110C148.18 109.533 149.093 109.3 150.106 109.3C151.133 109.3 152.04 109.527 152.826 109.98C153.613 110.433 154.226 111.073 154.666 111.9C155.12 112.713 155.346 113.667 155.346 114.76C155.346 114.84 155.34 114.933 155.326 115.04C155.326 115.147 155.32 115.247 155.306 115.34H146.286V113.96H154.306L153.526 114.44C153.54 113.76 153.4 113.153 153.106 112.62C152.813 112.087 152.406 111.673 151.886 111.38C151.38 111.073 150.786 110.92 150.106 110.92C149.44 110.92 148.846 111.073 148.326 111.38C147.806 111.673 147.4 112.093 147.106 112.64C146.813 113.173 146.666 113.787 146.666 114.48V114.8C146.666 115.507 146.826 116.14 147.146 116.7C147.48 117.247 147.94 117.673 148.526 117.98C149.113 118.287 149.786 118.44 150.546 118.44C151.173 118.44 151.74 118.333 152.246 118.12C152.766 117.907 153.22 117.587 153.606 117.16L154.666 118.4C154.186 118.96 153.586 119.387 152.866 119.68C152.16 119.973 151.366 120.12 150.486 120.12ZM158.325 120V109.4H160.245V117.12L166.745 109.4H168.485V120H166.565V112.28L160.085 120H158.325ZM163.285 108.02C162.312 108.02 161.545 107.787 160.985 107.32C160.438 106.84 160.158 106.153 160.145 105.26H161.445C161.458 105.767 161.625 106.167 161.945 106.46C162.278 106.753 162.718 106.9 163.265 106.9C163.812 106.9 164.252 106.753 164.585 106.46C164.918 106.167 165.092 105.767 165.105 105.26H166.445C166.432 106.153 166.145 106.84 165.585 107.32C165.025 107.787 164.258 108.02 163.285 108.02ZM172.812 123.88H170.992C171.805 122.467 172.398 120.993 172.772 119.46C173.145 117.913 173.332 116.267 173.332 114.52C173.332 112.773 173.145 111.133 172.772 109.6C172.398 108.053 171.805 106.573 170.992 105.16H172.812C173.598 106.347 174.192 107.747 174.592 109.36C175.005 110.96 175.212 112.68 175.212 114.52C175.212 116.36 175.005 118.08 174.592 119.68C174.192 121.267 173.598 122.667 172.812 123.88Z" fill="#003249"/>
<path d="M22.18 189V175H34.24V189H32.28V176.22L32.76 176.74H23.66L24.16 176.22V189H22.18ZM38.2858 189V178.4H40.2058V186.12L46.7058 178.4H48.4458V189H46.5258V181.28L40.0458 189H38.2858ZM57.7925 189.12C56.9125 189.12 56.1058 188.92 55.3725 188.52C54.6525 188.107 54.0725 187.5 53.6325 186.7C53.2058 185.9 52.9925 184.9 52.9925 183.7C52.9925 182.5 53.1992 181.5 53.6125 180.7C54.0392 179.9 54.6125 179.3 55.3325 178.9C56.0658 178.5 56.8858 178.3 57.7925 178.3C58.8325 178.3 59.7525 178.527 60.5525 178.98C61.3525 179.433 61.9858 180.067 62.4525 180.88C62.9192 181.68 63.1525 182.62 63.1525 183.7C63.1525 184.78 62.9192 185.727 62.4525 186.54C61.9858 187.353 61.3525 187.987 60.5525 188.44C59.7525 188.893 58.8325 189.12 57.7925 189.12ZM52.1725 192.88V178.4H54.0125V181.26L53.8925 183.72L54.0925 186.18V192.88H52.1725ZM57.6325 187.44C58.3125 187.44 58.9192 187.287 59.4525 186.98C59.9992 186.673 60.4258 186.24 60.7325 185.68C61.0525 185.107 61.2125 184.447 61.2125 183.7C61.2125 182.94 61.0525 182.287 60.7325 181.74C60.4258 181.18 59.9992 180.747 59.4525 180.44C58.9192 180.133 58.3125 179.98 57.6325 179.98C56.9658 179.98 56.3592 180.133 55.8125 180.44C55.2792 180.747 54.8525 181.18 54.5325 181.74C54.2258 182.287 54.0725 182.94 54.0725 183.7C54.0725 184.447 54.2258 185.107 54.5325 185.68C54.8525 186.24 55.2792 186.673 55.8125 186.98C56.3592 187.287 56.9658 187.44 57.6325 187.44ZM71.562 189.12C70.682 189.12 69.8754 188.92 69.142 188.52C68.422 188.107 67.842 187.5 67.402 186.7C66.9754 185.9 66.762 184.9 66.762 183.7C66.762 182.5 66.9687 181.5 67.382 180.7C67.8087 179.9 68.382 179.3 69.102 178.9C69.8354 178.5 70.6554 178.3 71.562 178.3C72.602 178.3 73.522 178.527 74.322 178.98C75.122 179.433 75.7554 180.067 76.222 180.88C76.6887 181.68 76.922 182.62 76.922 183.7C76.922 184.78 76.6887 185.727 76.222 186.54C75.7554 187.353 75.122 187.987 74.322 188.44C73.522 188.893 72.602 189.12 71.562 189.12ZM65.942 192.88V178.4H67.782V181.26L67.662 183.72L67.862 186.18V192.88H65.942ZM71.402 187.44C72.082 187.44 72.6887 187.287 73.222 186.98C73.7687 186.673 74.1954 186.24 74.502 185.68C74.822 185.107 74.982 184.447 74.982 183.7C74.982 182.94 74.822 182.287 74.502 181.74C74.1954 181.18 73.7687 180.747 73.222 180.44C72.6887 180.133 72.082 179.98 71.402 179.98C70.7354 179.98 70.1287 180.133 69.582 180.44C69.0487 180.747 68.622 181.18 68.302 181.74C67.9954 182.287 67.842 182.94 67.842 183.7C67.842 184.447 67.9954 185.107 68.302 185.68C68.622 186.24 69.0487 186.673 69.582 186.98C70.1287 187.287 70.7354 187.44 71.402 187.44ZM79.7116 189V178.4H81.6316V186.12L88.1316 178.4H89.8716V189H87.9516V181.28L81.4716 189H79.7116ZM91.9183 189L96.4783 183.08L96.4583 184.06L92.1183 178.4H94.2583L97.5783 182.76H96.7583L100.078 178.4H102.178L97.7783 184.1L97.7983 183.08L102.398 189H100.218L96.7183 184.36L97.4983 184.48L94.0583 189H91.9183ZM104.419 189V178.4H106.339V186.12L112.839 178.4H114.579V189H112.659V181.28L106.179 189H104.419ZM118.305 189V178.4H120.225V186.12L126.725 178.4H128.465V189H126.545V181.28L120.065 189H118.305ZM123.265 177.02C122.292 177.02 121.525 176.787 120.965 176.32C120.419 175.84 120.139 175.153 120.125 174.26H121.425C121.439 174.767 121.605 175.167 121.925 175.46C122.259 175.753 122.699 175.9 123.245 175.9C123.792 175.9 124.232 175.753 124.565 175.46C124.899 175.167 125.072 174.767 125.085 174.26H126.425C126.412 175.153 126.125 175.84 125.565 176.32C125.005 176.787 124.239 177.02 123.265 177.02Z" fill="#003249"/>
<path d="M28.44 258.16C27.3733 258.16 26.3867 257.987 25.48 257.64C24.5867 257.28 23.8067 256.78 23.14 256.14C22.4867 255.487 21.9733 254.727 21.6 253.86C21.2267 252.993 21.04 252.04 21.04 251C21.04 249.96 21.2267 249.007 21.6 248.14C21.9733 247.273 22.4933 246.52 23.16 245.88C23.8267 245.227 24.6067 244.727 25.5 244.38C26.4067 244.02 27.3933 243.84 28.46 243.84C29.54 243.84 30.5333 244.027 31.44 244.4C32.36 244.76 33.14 245.3 33.78 246.02L32.48 247.28C31.9467 246.72 31.3467 246.307 30.68 246.04C30.0133 245.76 29.3 245.62 28.54 245.62C27.7533 245.62 27.02 245.753 26.34 246.02C25.6733 246.287 25.0933 246.66 24.6 247.14C24.1067 247.62 23.72 248.193 23.44 248.86C23.1733 249.513 23.04 250.227 23.04 251C23.04 251.773 23.1733 252.493 23.44 253.16C23.72 253.813 24.1067 254.38 24.6 254.86C25.0933 255.34 25.6733 255.713 26.34 255.98C27.02 256.247 27.7533 256.38 28.54 256.38C29.3 256.38 30.0133 256.247 30.68 255.98C31.3467 255.7 31.9467 255.273 32.48 254.7L33.78 255.96C33.14 256.68 32.36 257.227 31.44 257.6C30.5333 257.973 29.5333 258.16 28.44 258.16ZM36.2155 258V247.4H46.0355V258H44.1155V248.6L44.5755 249.08H37.6755L38.1355 248.6V258H36.2155ZM54.2906 258.12C53.224 258.12 52.2773 257.887 51.4506 257.42C50.624 256.953 49.9706 256.313 49.4906 255.5C49.0106 254.673 48.7706 253.74 48.7706 252.7C48.7706 251.647 49.0106 250.713 49.4906 249.9C49.9706 249.087 50.624 248.453 51.4506 248C52.2773 247.533 53.224 247.3 54.2906 247.3C55.344 247.3 56.284 247.533 57.1106 248C57.9506 248.453 58.604 249.087 59.0706 249.9C59.5506 250.7 59.7906 251.633 59.7906 252.7C59.7906 253.753 59.5506 254.687 59.0706 255.5C58.604 256.313 57.9506 256.953 57.1106 257.42C56.284 257.887 55.344 258.12 54.2906 258.12ZM54.2906 256.44C54.9706 256.44 55.5773 256.287 56.1106 255.98C56.6573 255.673 57.084 255.24 57.3906 254.68C57.6973 254.107 57.8506 253.447 57.8506 252.7C57.8506 251.94 57.6973 251.287 57.3906 250.74C57.084 250.18 56.6573 249.747 56.1106 249.44C55.5773 249.133 54.9706 248.98 54.2906 248.98C53.6106 248.98 53.004 249.133 52.4706 249.44C51.9373 249.747 51.5106 250.18 51.1906 250.74C50.8706 251.287 50.7106 251.94 50.7106 252.7C50.7106 253.447 50.8706 254.107 51.1906 254.68C51.5106 255.24 51.9373 255.673 52.4706 255.98C53.004 256.287 53.6106 256.44 54.2906 256.44ZM62.5631 258V247.4H64.4831V251.9H70.5231V247.4H72.4431V258H70.5231V253.56H64.4831V258H62.5631ZM83.4164 257.1V249.08H78.8164L78.7164 251.12C78.6897 251.787 78.6431 252.433 78.5764 253.06C78.5231 253.673 78.4297 254.24 78.2964 254.76C78.1764 255.28 77.9964 255.707 77.7564 256.04C77.5164 256.373 77.1964 256.58 76.7964 256.66L74.8964 256.32C75.3097 256.333 75.6431 256.2 75.8964 255.92C76.1497 255.627 76.3431 255.227 76.4764 254.72C76.6231 254.213 76.7297 253.64 76.7964 253C76.8631 252.347 76.9164 251.673 76.9564 250.98L77.1164 247.4H85.3364V257.1H83.4164ZM74.4764 260.46V256.32H86.9564V260.46H85.1564V258H76.2964V260.46H74.4764ZM94.1777 258.12C93.0443 258.12 92.0443 257.887 91.1777 257.42C90.3243 256.953 89.6577 256.313 89.1777 255.5C88.711 254.687 88.4777 253.753 88.4777 252.7C88.4777 251.647 88.7043 250.713 89.1577 249.9C89.6243 249.087 90.2577 248.453 91.0577 248C91.871 247.533 92.7843 247.3 93.7977 247.3C94.8243 247.3 95.731 247.527 96.5177 247.98C97.3043 248.433 97.9177 249.073 98.3577 249.9C98.811 250.713 99.0377 251.667 99.0377 252.76C99.0377 252.84 99.031 252.933 99.0177 253.04C99.0177 253.147 99.011 253.247 98.9977 253.34H89.9777V251.96H97.9977L97.2177 252.44C97.231 251.76 97.091 251.153 96.7977 250.62C96.5043 250.087 96.0977 249.673 95.5777 249.38C95.071 249.073 94.4777 248.92 93.7977 248.92C93.131 248.92 92.5377 249.073 92.0177 249.38C91.4977 249.673 91.091 250.093 90.7977 250.64C90.5043 251.173 90.3577 251.787 90.3577 252.48V252.8C90.3577 253.507 90.5177 254.14 90.8377 254.7C91.171 255.247 91.631 255.673 92.2177 255.98C92.8043 256.287 93.4777 256.44 94.2377 256.44C94.8643 256.44 95.431 256.333 95.9377 256.12C96.4577 255.907 96.911 255.587 97.2977 255.16L98.3577 256.4C97.8777 256.96 97.2777 257.387 96.5577 257.68C95.851 257.973 95.0577 258.12 94.1777 258.12ZM102.016 258V247.4H103.936V255.12L110.436 247.4H112.176V258H110.256V250.28L103.776 258H102.016ZM106.976 246.02C106.003 246.02 105.236 245.787 104.676 245.32C104.13 244.84 103.85 244.153 103.836 243.26H105.136C105.15 243.767 105.316 244.167 105.636 244.46C105.97 244.753 106.41 244.9 106.956 244.9C107.503 244.9 107.943 244.753 108.276 244.46C108.61 244.167 108.783 243.767 108.796 243.26H110.136C110.123 244.153 109.836 244.84 109.276 245.32C108.716 245.787 107.95 246.02 106.976 246.02Z" fill="#003249"/>
<rect x="0.5" y="10.5" width="478.433" height="69" stroke="#FF4444"/>
<rect x="479.066" y="10.5" width="478.433" height="69" stroke="#FF4444"/>
<rect x="0.5" y="79.5" width="478.433" height="69" stroke="#FF4444"/>
<rect x="479.066" y="79.5" width="478.433" height="69" stroke="#FF4444"/>
<rect x="0.5" y="148.5" width="478.433" height="69" stroke="#FF4444"/>
<rect x="479.066" y="148.5" width="478.433" height="69" stroke="#FF4444"/>
<rect x="0.5" y="217.5" width="478.433" height="69" stroke="#FF4444"/>
<rect x="479.066" y="217.5" width="478.433" height="69" stroke="#FF4444"/>
<line x1="582" y1="50" x2="632" y2="50" stroke="#003249" stroke-width="2"/>
</svg>
