<svg width="958" height="394" viewBox="0 0 958 394" fill="none" xmlns="http://www.w3.org/2000/svg">
<mask id="path-1-inside-1_716_3" fill="white">
<path d="M697 33.3333C697 37.7107 696.353 42.0453 695.097 46.0894C693.841 50.1336 691.999 53.8083 689.678 56.9036C687.356 59.9988 684.6 62.4542 681.567 64.1293C678.534 65.8045 675.283 66.6667 672 66.6667C668.717 66.6667 665.466 65.8045 662.433 64.1293C659.4 62.4542 656.644 59.9988 654.322 56.9036C652.001 53.8083 650.159 50.1336 648.903 46.0894C647.647 42.0453 647 37.7107 647 33.3333H648.704C648.704 37.4124 649.306 41.4516 650.477 45.2202C651.648 48.9888 653.364 52.413 655.527 55.2974C657.69 58.1818 660.258 60.4698 663.085 62.0308C665.911 63.5918 668.941 64.3952 672 64.3952C675.059 64.3952 678.089 63.5918 680.915 62.0308C683.742 60.4698 686.31 58.1818 688.473 55.2974C690.636 52.413 692.352 48.9888 693.523 45.2202C694.694 41.4516 695.296 37.4124 695.296 33.3333H697Z"/>
</mask>
<path d="M697 33.3333C697 37.7107 696.353 42.0453 695.097 46.0894C693.841 50.1336 691.999 53.8083 689.678 56.9036C687.356 59.9988 684.6 62.4542 681.567 64.1293C678.534 65.8045 675.283 66.6667 672 66.6667C668.717 66.6667 665.466 65.8045 662.433 64.1293C659.4 62.4542 656.644 59.9988 654.322 56.9036C652.001 53.8083 650.159 50.1336 648.903 46.0894C647.647 42.0453 647 37.7107 647 33.3333H648.704C648.704 37.4124 649.306 41.4516 650.477 45.2202C651.648 48.9888 653.364 52.413 655.527 55.2974C657.69 58.1818 660.258 60.4698 663.085 62.0308C665.911 63.5918 668.941 64.3952 672 64.3952C675.059 64.3952 678.089 63.5918 680.915 62.0308C683.742 60.4698 686.31 58.1818 688.473 55.2974C690.636 52.413 692.352 48.9888 693.523 45.2202C694.694 41.4516 695.296 37.4124 695.296 33.3333H697Z" stroke="#003249" stroke-width="6" mask="url(#path-1-inside-1_716_3)"/>
<mask id="path-2-inside-2_716_3" fill="white">
<path d="M697 102.333C697 106.711 696.353 111.045 695.097 115.089C693.841 119.134 691.999 122.808 689.678 125.904C687.356 128.999 684.6 131.454 681.567 133.129C678.534 134.804 675.283 135.667 672 135.667C668.717 135.667 665.466 134.804 662.433 133.129C659.4 131.454 656.644 128.999 654.322 125.904C652.001 122.808 650.159 119.134 648.903 115.089C647.647 111.045 647 106.711 647 102.333H648.704C648.704 106.412 649.306 110.452 650.477 114.22C651.648 117.989 653.364 121.413 655.527 124.297C657.69 127.182 660.258 129.47 663.085 131.031C665.911 132.592 668.941 133.395 672 133.395C675.059 133.395 678.089 132.592 680.915 131.031C683.742 129.47 686.31 127.182 688.473 124.297C690.636 121.413 692.352 117.989 693.523 114.22C694.694 110.452 695.296 106.412 695.296 102.333H697Z"/>
</mask>
<path d="M697 102.333C697 106.711 696.353 111.045 695.097 115.089C693.841 119.134 691.999 122.808 689.678 125.904C687.356 128.999 684.6 131.454 681.567 133.129C678.534 134.804 675.283 135.667 672 135.667C668.717 135.667 665.466 134.804 662.433 133.129C659.4 131.454 656.644 128.999 654.322 125.904C652.001 122.808 650.159 119.134 648.903 115.089C647.647 111.045 647 106.711 647 102.333H648.704C648.704 106.412 649.306 110.452 650.477 114.22C651.648 117.989 653.364 121.413 655.527 124.297C657.69 127.182 660.258 129.47 663.085 131.031C665.911 132.592 668.941 133.395 672 133.395C675.059 133.395 678.089 132.592 680.915 131.031C683.742 129.47 686.31 127.182 688.473 124.297C690.636 121.413 692.352 117.989 693.523 114.22C694.694 110.452 695.296 106.412 695.296 102.333H697Z" stroke="#003249" stroke-width="6" mask="url(#path-2-inside-2_716_3)"/>
<mask id="path-3-inside-3_716_3" fill="white">
<path d="M627 171.333C627 175.711 626.353 180.045 625.097 184.089C623.841 188.134 621.999 191.808 619.678 194.904C617.356 197.999 614.6 200.454 611.567 202.129C608.534 203.804 605.283 204.667 602 204.667C598.717 204.667 595.466 203.804 592.433 202.129C589.4 200.454 586.644 197.999 584.322 194.904C582.001 191.808 580.159 188.134 578.903 184.089C577.647 180.045 577 175.711 577 171.333H578.704C578.704 175.412 579.306 179.452 580.477 183.22C581.648 186.989 583.364 190.413 585.527 193.297C587.69 196.182 590.258 198.47 593.085 200.031C595.911 201.592 598.941 202.395 602 202.395C605.059 202.395 608.089 201.592 610.915 200.031C613.742 198.47 616.31 196.182 618.473 193.297C620.636 190.413 622.352 186.989 623.523 183.22C624.694 179.452 625.296 175.412 625.296 171.333H627Z"/>
</mask>
<path d="M627 171.333C627 175.711 626.353 180.045 625.097 184.089C623.841 188.134 621.999 191.808 619.678 194.904C617.356 197.999 614.6 200.454 611.567 202.129C608.534 203.804 605.283 204.667 602 204.667C598.717 204.667 595.466 203.804 592.433 202.129C589.4 200.454 586.644 197.999 584.322 194.904C582.001 191.808 580.159 188.134 578.903 184.089C577.647 180.045 577 175.711 577 171.333H578.704C578.704 175.412 579.306 179.452 580.477 183.22C581.648 186.989 583.364 190.413 585.527 193.297C587.69 196.182 590.258 198.47 593.085 200.031C595.911 201.592 598.941 202.395 602 202.395C605.059 202.395 608.089 201.592 610.915 200.031C613.742 198.47 616.31 196.182 618.473 193.297C620.636 190.413 622.352 186.989 623.523 183.22C624.694 179.452 625.296 175.412 625.296 171.333H627Z" stroke="#003249" stroke-width="6" mask="url(#path-3-inside-3_716_3)"/>
<mask id="path-4-inside-4_716_3" fill="white">
<path d="M629 33.3333C629 37.7107 628.353 42.0453 627.097 46.0894C625.841 50.1336 623.999 53.8083 621.678 56.9036C619.356 59.9988 616.6 62.4542 613.567 64.1293C610.534 65.8045 607.283 66.6667 604 66.6667C600.717 66.6667 597.466 65.8045 594.433 64.1293C591.4 62.4542 588.644 59.9988 586.322 56.9036C584.001 53.8083 582.159 50.1336 580.903 46.0894C579.647 42.0453 579 37.7107 579 33.3333H580.704C580.704 37.4124 581.306 41.4516 582.477 45.2202C583.648 48.9888 585.364 52.413 587.527 55.2974C589.69 58.1818 592.258 60.4698 595.085 62.0308C597.911 63.5918 600.941 64.3952 604 64.3952C607.059 64.3952 610.089 63.5918 612.915 62.0308C615.742 60.4698 618.31 58.1818 620.473 55.2974C622.636 52.413 624.352 48.9888 625.523 45.2202C626.694 41.4516 627.296 37.4124 627.296 33.3333H629Z"/>
</mask>
<path d="M629 33.3333C629 37.7107 628.353 42.0453 627.097 46.0894C625.841 50.1336 623.999 53.8083 621.678 56.9036C619.356 59.9988 616.6 62.4542 613.567 64.1293C610.534 65.8045 607.283 66.6667 604 66.6667C600.717 66.6667 597.466 65.8045 594.433 64.1293C591.4 62.4542 588.644 59.9988 586.322 56.9036C584.001 53.8083 582.159 50.1336 580.903 46.0894C579.647 42.0453 579 37.7107 579 33.3333H580.704C580.704 37.4124 581.306 41.4516 582.477 45.2202C583.648 48.9888 585.364 52.413 587.527 55.2974C589.69 58.1818 592.258 60.4698 595.085 62.0308C597.911 63.5918 600.941 64.3952 604 64.3952C607.059 64.3952 610.089 63.5918 612.915 62.0308C615.742 60.4698 618.31 58.1818 620.473 55.2974C622.636 52.413 624.352 48.9888 625.523 45.2202C626.694 41.4516 627.296 37.4124 627.296 33.3333H629Z" stroke="#003249" stroke-width="6" mask="url(#path-4-inside-4_716_3)"/>
<mask id="path-5-inside-5_716_3" fill="white">
<path d="M559 102.333C559 106.711 558.353 111.045 557.097 115.089C555.841 119.134 553.999 122.808 551.678 125.904C549.356 128.999 546.6 131.454 543.567 133.129C540.534 134.804 537.283 135.667 534 135.667C530.717 135.667 527.466 134.804 524.433 133.129C521.4 131.454 518.644 128.999 516.322 125.904C514.001 122.808 512.159 119.134 510.903 115.089C509.647 111.045 509 106.711 509 102.333H510.704C510.704 106.412 511.306 110.452 512.477 114.22C513.648 117.989 515.364 121.413 517.527 124.297C519.69 127.182 522.258 129.47 525.085 131.031C527.911 132.592 530.941 133.395 534 133.395C537.059 133.395 540.089 132.592 542.915 131.031C545.742 129.47 548.31 127.182 550.473 124.297C552.636 121.413 554.352 117.989 555.523 114.22C556.694 110.452 557.296 106.412 557.296 102.333H559Z"/>
</mask>
<path d="M559 102.333C559 106.711 558.353 111.045 557.097 115.089C555.841 119.134 553.999 122.808 551.678 125.904C549.356 128.999 546.6 131.454 543.567 133.129C540.534 134.804 537.283 135.667 534 135.667C530.717 135.667 527.466 134.804 524.433 133.129C521.4 131.454 518.644 128.999 516.322 125.904C514.001 122.808 512.159 119.134 510.903 115.089C509.647 111.045 509 106.711 509 102.333H510.704C510.704 106.412 511.306 110.452 512.477 114.22C513.648 117.989 515.364 121.413 517.527 124.297C519.69 127.182 522.258 129.47 525.085 131.031C527.911 132.592 530.941 133.395 534 133.395C537.059 133.395 540.089 132.592 542.915 131.031C545.742 129.47 548.31 127.182 550.473 124.297C552.636 121.413 554.352 117.989 555.523 114.22C556.694 110.452 557.296 106.412 557.296 102.333H559Z" stroke="#003249" stroke-width="6" mask="url(#path-5-inside-5_716_3)"/>
<mask id="path-6-inside-6_716_3" fill="white">
<path d="M559 171.333C559 175.711 558.353 180.045 557.097 184.089C555.841 188.134 553.999 191.808 551.678 194.904C549.356 197.999 546.6 200.454 543.567 202.129C540.534 203.804 537.283 204.667 534 204.667C530.717 204.667 527.466 203.804 524.433 202.129C521.4 200.454 518.644 197.999 516.322 194.904C514.001 191.808 512.159 188.134 510.903 184.089C509.647 180.045 509 175.711 509 171.333H510.704C510.704 175.412 511.306 179.452 512.477 183.22C513.648 186.989 515.364 190.413 517.527 193.297C519.69 196.182 522.258 198.47 525.085 200.031C527.911 201.592 530.941 202.395 534 202.395C537.059 202.395 540.089 201.592 542.915 200.031C545.742 198.47 548.31 196.182 550.473 193.297C552.636 190.413 554.352 186.989 555.523 183.22C556.694 179.452 557.296 175.412 557.296 171.333H559Z"/>
</mask>
<path d="M559 171.333C559 175.711 558.353 180.045 557.097 184.089C555.841 188.134 553.999 191.808 551.678 194.904C549.356 197.999 546.6 200.454 543.567 202.129C540.534 203.804 537.283 204.667 534 204.667C530.717 204.667 527.466 203.804 524.433 202.129C521.4 200.454 518.644 197.999 516.322 194.904C514.001 191.808 512.159 188.134 510.903 184.089C509.647 180.045 509 175.711 509 171.333H510.704C510.704 175.412 511.306 179.452 512.477 183.22C513.648 186.989 515.364 190.413 517.527 193.297C519.69 196.182 522.258 198.47 525.085 200.031C527.911 201.592 530.941 202.395 534 202.395C537.059 202.395 540.089 201.592 542.915 200.031C545.742 198.47 548.31 196.182 550.473 193.297C552.636 190.413 554.352 186.989 555.523 183.22C556.694 179.452 557.296 175.412 557.296 171.333H559Z" stroke="#003249" stroke-width="6" mask="url(#path-6-inside-6_716_3)"/>
<line x1="509" y1="50" x2="559" y2="50" stroke="#003249" stroke-width="2"/>
<line x1="579" y1="119" x2="629" y2="119" stroke="#003249" stroke-width="2"/>
<line x1="651" y1="188" x2="701" y2="188" stroke="#003249" stroke-width="2"/>
<path d="M31.48 50.06V38.74H25.34L25.24 41.68C25.2 42.6667 25.1333 43.6133 25.04 44.52C24.96 45.4267 24.84 46.2467 24.68 46.98C24.52 47.7 24.2933 48.2933 24 48.76C23.72 49.2267 23.36 49.5133 22.92 49.62L20.76 49.26C21.28 49.3 21.7067 49.1267 22.04 48.74C22.3867 48.34 22.6533 47.7867 22.84 47.08C23.04 46.36 23.1867 45.5267 23.28 44.58C23.3733 43.62 23.44 42.5933 23.48 41.5L23.62 37H33.46V50.06H31.48ZM20.26 54.06L20.28 49.26H35.52V54.06H33.66V51H22.14L22.12 54.06H20.26ZM44.4342 51V48.76L44.3342 48.34V44.52C44.3342 43.7067 44.0942 43.08 43.6142 42.64C43.1476 42.1867 42.4409 41.96 41.4942 41.96C40.8676 41.96 40.2542 42.0667 39.6542 42.28C39.0542 42.48 38.5476 42.7533 38.1342 43.1L37.3342 41.66C37.8809 41.22 38.5342 40.8867 39.2942 40.66C40.0676 40.42 40.8742 40.3 41.7142 40.3C43.1676 40.3 44.2876 40.6533 45.0742 41.36C45.8609 42.0667 46.2542 43.1467 46.2542 44.6V51H44.4342ZM40.9542 51.12C40.1676 51.12 39.4742 50.9867 38.8742 50.72C38.2876 50.4533 37.8342 50.0867 37.5142 49.62C37.1942 49.14 37.0342 48.6 37.0342 48C37.0342 47.4267 37.1676 46.9067 37.4342 46.44C37.7142 45.9733 38.1609 45.6 38.7742 45.32C39.4009 45.04 40.2409 44.9 41.2942 44.9H44.6542V46.28H41.3742C40.4142 46.28 39.7676 46.44 39.4342 46.76C39.1009 47.08 38.9342 47.4667 38.9342 47.92C38.9342 48.44 39.1409 48.86 39.5542 49.18C39.9676 49.4867 40.5409 49.64 41.2742 49.64C41.9942 49.64 42.6209 49.48 43.1542 49.16C43.7009 48.84 44.0942 48.3733 44.3342 47.76L44.7142 49.08C44.4609 49.7067 44.0142 50.2067 43.3742 50.58C42.7342 50.94 41.9276 51.12 40.9542 51.12ZM57.3916 51L53.2916 45.84L54.8716 44.88L59.6516 51H57.3916ZM49.7116 51V40.4H51.6316V51H49.7116ZM51.0516 46.52V44.88H54.5516V46.52H51.0516ZM55.0316 45.92L53.2516 45.68L57.3116 40.4H59.3716L55.0316 45.92ZM63.5889 51V41.58L64.0689 42.08H59.7089V40.4H69.3889V42.08H65.0489L65.5089 41.58V51H63.5889ZM71.3522 51V40.4H73.2722V48.12L79.7722 40.4H81.5122V51H79.5922V43.28L73.1122 51H71.3522ZM83.4789 50.98L83.5989 49.36C83.6922 49.3733 83.7789 49.3867 83.8589 49.4C83.9389 49.4133 84.0122 49.42 84.0789 49.42C84.5056 49.42 84.8389 49.2733 85.0789 48.98C85.3322 48.6867 85.5189 48.3 85.6389 47.82C85.7589 47.3267 85.8456 46.7733 85.8989 46.16C85.9522 45.5467 85.9922 44.9333 86.0189 44.32L86.1989 40.4H94.3389V51H92.4189V41.52L92.8789 42.08H87.4389L87.8789 41.5L87.7389 44.44C87.6989 45.3733 87.6256 46.2467 87.5189 47.06C87.4122 47.8733 87.2456 48.5867 87.0189 49.2C86.8056 49.8133 86.5056 50.2933 86.1189 50.64C85.7456 50.9867 85.2589 51.16 84.6589 51.16C84.4856 51.16 84.2989 51.14 84.0989 51.1C83.9122 51.0733 83.7056 51.0333 83.4789 50.98ZM102.951 44C104.298 44.0133 105.325 44.32 106.031 44.92C106.738 45.52 107.091 46.3667 107.091 47.46C107.091 48.6067 106.705 49.4933 105.931 50.12C105.158 50.7333 104.065 51.0333 102.651 51.02L98.0514 51V40.4H99.9714V43.98L102.951 44ZM102.491 49.56C103.358 49.5733 104.011 49.4 104.451 49.04C104.905 48.68 105.131 48.1467 105.131 47.44C105.131 46.7467 104.911 46.24 104.471 45.92C104.031 45.6 103.371 45.4333 102.491 45.42L99.9714 45.38V49.54L102.491 49.56Z" fill="#003249"/>
<path d="M20.24 120L26.58 106H28.56L34.92 120H32.82L27.16 107.12H27.96L22.3 120H20.24ZM22.94 116.5L23.48 114.9H31.36L31.94 116.5H22.94ZM37.0163 120V109.4H38.9963L43.5563 117.24H42.7563L47.4363 109.4H49.2363V120H47.4963V111.56L47.8163 111.74L43.5363 118.8H42.6963L38.3963 111.6L38.7763 111.52V120H37.0163ZM59.2933 120.16C59.2799 120.16 59.2333 120.16 59.1533 120.16C59.0866 120.16 59.0199 120.16 58.9533 120.16C58.8866 120.16 58.8466 120.16 58.8333 120.16C56.6599 120.133 54.9733 119.653 53.7733 118.72C52.5733 117.773 51.9733 116.427 51.9733 114.68C51.9733 112.947 52.5733 111.62 53.7733 110.7C54.9866 109.767 56.6933 109.293 58.8933 109.28C58.9199 109.28 58.9599 109.28 59.0133 109.28C59.0799 109.28 59.1399 109.28 59.1933 109.28C59.2599 109.28 59.2999 109.28 59.3133 109.28C61.5399 109.28 63.2666 109.747 64.4933 110.68C65.7333 111.613 66.3533 112.947 66.3533 114.68C66.3533 116.44 65.7333 117.793 64.4933 118.74C63.2533 119.687 61.5199 120.16 59.2933 120.16ZM59.2533 118.48C60.4133 118.48 61.3733 118.333 62.1333 118.04C62.9066 117.747 63.4866 117.32 63.8733 116.76C64.2599 116.2 64.4533 115.507 64.4533 114.68C64.4533 113.867 64.2599 113.187 63.8733 112.64C63.4866 112.093 62.9066 111.68 62.1333 111.4C61.3733 111.12 60.4133 110.98 59.2533 110.98C59.2266 110.98 59.1733 110.98 59.0933 110.98C59.0133 110.98 58.9666 110.98 58.9533 110.98C57.8199 110.98 56.8733 111.127 56.1133 111.42C55.3666 111.7 54.8066 112.113 54.4333 112.66C54.0599 113.207 53.8733 113.88 53.8733 114.68C53.8733 115.493 54.0599 116.18 54.4333 116.74C54.8199 117.3 55.3866 117.727 56.1333 118.02C56.8933 118.313 57.8333 118.467 58.9533 118.48C58.9799 118.48 59.0266 118.48 59.0933 118.48C59.1733 118.48 59.2266 118.48 59.2533 118.48ZM58.2133 123.88V105.16H60.0933V123.88H58.2133ZM69.067 120V109.4H70.987V117.12L77.487 109.4H79.227V120H77.307V112.28L70.827 120H69.067ZM87.8538 120.16C86.9738 120.16 86.1938 120.02 85.5138 119.74C84.8471 119.46 84.2738 119.047 83.7938 118.5C83.3138 117.94 82.9471 117.24 82.6938 116.4C82.4538 115.547 82.3338 114.547 82.3338 113.4C82.3338 112.493 82.4138 111.68 82.5738 110.96C82.7338 110.24 82.9604 109.6 83.2538 109.04C83.5604 108.48 83.9338 107.993 84.3738 107.58C84.8271 107.167 85.3338 106.827 85.8938 106.56C86.4671 106.28 87.0938 106.067 87.7738 105.92L92.6138 104.84L92.8938 106.62L88.4338 107.58C88.1671 107.633 87.8471 107.713 87.4738 107.82C87.1004 107.927 86.7204 108.093 86.3338 108.32C85.9471 108.533 85.5871 108.833 85.2538 109.22C84.9204 109.607 84.6538 110.113 84.4538 110.74C84.2538 111.353 84.1538 112.113 84.1538 113.02C84.1538 113.273 84.1604 113.467 84.1738 113.6C84.1871 113.733 84.2004 113.867 84.2138 114C84.2404 114.133 84.2604 114.333 84.2738 114.6L83.4738 113.78C83.6871 113.047 84.0271 112.407 84.4938 111.86C84.9604 111.313 85.5204 110.893 86.1738 110.6C86.8404 110.293 87.5671 110.14 88.3538 110.14C89.3404 110.14 90.2138 110.353 90.9738 110.78C91.7471 111.207 92.3538 111.793 92.7938 112.54C93.2338 113.287 93.4538 114.14 93.4538 115.1C93.4538 116.073 93.2204 116.947 92.7538 117.72C92.3004 118.48 91.6538 119.08 90.8138 119.52C89.9738 119.947 88.9871 120.16 87.8538 120.16ZM88.0338 118.56C88.7138 118.56 89.3138 118.413 89.8338 118.12C90.3538 117.813 90.7604 117.407 91.0538 116.9C91.3471 116.38 91.4938 115.8 91.4938 115.16C91.4938 114.52 91.3471 113.953 91.0538 113.46C90.7604 112.967 90.3538 112.58 89.8338 112.3C89.3138 112.007 88.7004 111.86 87.9938 111.86C87.3271 111.86 86.7271 112 86.1938 112.28C85.6604 112.547 85.2471 112.927 84.9538 113.42C84.6604 113.9 84.5138 114.46 84.5138 115.1C84.5138 115.74 84.6604 116.327 84.9538 116.86C85.2604 117.38 85.6738 117.793 86.1938 118.1C86.7271 118.407 87.3404 118.56 88.0338 118.56ZM101.816 120.12C100.936 120.12 100.129 119.92 99.3959 119.52C98.6759 119.107 98.0959 118.5 97.6559 117.7C97.2293 116.9 97.0159 115.9 97.0159 114.7C97.0159 113.5 97.2226 112.5 97.6359 111.7C98.0626 110.9 98.6359 110.3 99.3559 109.9C100.089 109.5 100.909 109.3 101.816 109.3C102.856 109.3 103.776 109.527 104.576 109.98C105.376 110.433 106.009 111.067 106.476 111.88C106.943 112.68 107.176 113.62 107.176 114.7C107.176 115.78 106.943 116.727 106.476 117.54C106.009 118.353 105.376 118.987 104.576 119.44C103.776 119.893 102.856 120.12 101.816 120.12ZM96.1959 123.88V109.4H98.0359V112.26L97.9159 114.72L98.1159 117.18V123.88H96.1959ZM101.656 118.44C102.336 118.44 102.943 118.287 103.476 117.98C104.023 117.673 104.449 117.24 104.756 116.68C105.076 116.107 105.236 115.447 105.236 114.7C105.236 113.94 105.076 113.287 104.756 112.74C104.449 112.18 104.023 111.747 103.476 111.44C102.943 111.133 102.336 110.98 101.656 110.98C100.989 110.98 100.383 111.133 99.8359 111.44C99.3026 111.747 98.8759 112.18 98.5559 112.74C98.2493 113.287 98.0959 113.94 98.0959 114.7C98.0959 115.447 98.2493 116.107 98.5559 116.68C98.8759 117.24 99.3026 117.673 99.8359 117.98C100.383 118.287 100.989 118.44 101.656 118.44ZM116.368 120V117.76L116.268 117.34V113.52C116.268 112.707 116.028 112.08 115.548 111.64C115.081 111.187 114.374 110.96 113.428 110.96C112.801 110.96 112.188 111.067 111.588 111.28C110.988 111.48 110.481 111.753 110.068 112.1L109.268 110.66C109.814 110.22 110.468 109.887 111.228 109.66C112.001 109.42 112.808 109.3 113.648 109.3C115.101 109.3 116.221 109.653 117.008 110.36C117.794 111.067 118.188 112.147 118.188 113.6V120H116.368ZM112.888 120.12C112.101 120.12 111.408 119.987 110.808 119.72C110.221 119.453 109.768 119.087 109.448 118.62C109.128 118.14 108.968 117.6 108.968 117C108.968 116.427 109.101 115.907 109.368 115.44C109.648 114.973 110.094 114.6 110.708 114.32C111.334 114.04 112.174 113.9 113.228 113.9H116.588V115.28H113.308C112.348 115.28 111.701 115.44 111.368 115.76C111.034 116.08 110.868 116.467 110.868 116.92C110.868 117.44 111.074 117.86 111.488 118.18C111.901 118.487 112.474 118.64 113.208 118.64C113.928 118.64 114.554 118.48 115.088 118.16C115.634 117.84 116.028 117.373 116.268 116.76L116.648 118.08C116.394 118.707 115.948 119.207 115.308 119.58C114.668 119.94 113.861 120.12 112.888 120.12ZM119.965 120L124.525 114.08L124.505 115.06L120.165 109.4H122.305L125.625 113.76H124.805L128.125 109.4H130.225L125.825 115.1L125.845 114.08L130.445 120H128.265L124.765 115.36L125.545 115.48L122.105 120H119.965ZM132.465 120V109.4H134.385V117.12L140.885 109.4H142.625V120H140.705V112.28L134.225 120H132.465ZM146.352 120V109.4H148.272V117.12L154.772 109.4H156.512V120H154.592V112.28L148.112 120H146.352ZM151.312 108.02C150.339 108.02 149.572 107.787 149.012 107.32C148.466 106.84 148.186 106.153 148.172 105.26H149.472C149.486 105.767 149.652 106.167 149.972 106.46C150.306 106.753 150.746 106.9 151.292 106.9C151.839 106.9 152.279 106.753 152.612 106.46C152.946 106.167 153.119 105.767 153.132 105.26H154.472C154.459 106.153 154.172 106.84 153.612 107.32C153.052 107.787 152.286 108.02 151.312 108.02Z" fill="#003249"/>
<path d="M20.24 189L26.58 175H28.56L34.92 189H32.82L27.16 176.12H27.96L22.3 189H20.24ZM22.94 185.5L23.48 183.9H31.36L31.94 185.5H22.94ZM37.0163 189V178.4H38.9363V182.9H44.9763V178.4H46.8963V189H44.9763V184.56H38.9363V189H37.0163ZM57.1295 189V186.76L57.0295 186.34V182.52C57.0295 181.707 56.7895 181.08 56.3095 180.64C55.8429 180.187 55.1362 179.96 54.1895 179.96C53.5629 179.96 52.9495 180.067 52.3495 180.28C51.7495 180.48 51.2429 180.753 50.8295 181.1L50.0295 179.66C50.5762 179.22 51.2295 178.887 51.9895 178.66C52.7629 178.42 53.5695 178.3 54.4095 178.3C55.8629 178.3 56.9829 178.653 57.7695 179.36C58.5562 180.067 58.9495 181.147 58.9495 182.6V189H57.1295ZM53.6495 189.12C52.8629 189.12 52.1695 188.987 51.5695 188.72C50.9829 188.453 50.5295 188.087 50.2095 187.62C49.8895 187.14 49.7295 186.6 49.7295 186C49.7295 185.427 49.8629 184.907 50.1295 184.44C50.4095 183.973 50.8562 183.6 51.4695 183.32C52.0962 183.04 52.9362 182.9 53.9895 182.9H57.3495V184.28H54.0695C53.1095 184.28 52.4629 184.44 52.1295 184.76C51.7962 185.08 51.6295 185.467 51.6295 185.92C51.6295 186.44 51.8362 186.86 52.2495 187.18C52.6629 187.487 53.2362 187.64 53.9695 187.64C54.6895 187.64 55.3162 187.48 55.8495 187.16C56.3962 186.84 56.7895 186.373 57.0295 185.76L57.4095 187.08C57.1562 187.707 56.7095 188.207 56.0695 188.58C55.4295 188.94 54.6229 189.12 53.6495 189.12ZM62.4069 189V178.4H72.2269V189H70.3069V179.6L70.7669 180.08H63.8669L64.3269 179.6V189H62.4069ZM80.662 189.12C79.5287 189.12 78.5287 188.887 77.662 188.42C76.8087 187.953 76.142 187.313 75.662 186.5C75.1954 185.687 74.962 184.753 74.962 183.7C74.962 182.647 75.1887 181.713 75.642 180.9C76.1087 180.087 76.742 179.453 77.542 179C78.3554 178.533 79.2687 178.3 80.282 178.3C81.3087 178.3 82.2154 178.527 83.002 178.98C83.7887 179.433 84.402 180.073 84.842 180.9C85.2954 181.713 85.522 182.667 85.522 183.76C85.522 183.84 85.5154 183.933 85.502 184.04C85.502 184.147 85.4954 184.247 85.482 184.34H76.462V182.96H84.482L83.702 183.44C83.7154 182.76 83.5754 182.153 83.282 181.62C82.9887 181.087 82.582 180.673 82.062 180.38C81.5554 180.073 80.962 179.92 80.282 179.92C79.6154 179.92 79.022 180.073 78.502 180.38C77.982 180.673 77.5754 181.093 77.282 181.64C76.9887 182.173 76.842 182.787 76.842 183.48V183.8C76.842 184.507 77.002 185.14 77.322 185.7C77.6554 186.247 78.1154 186.673 78.702 186.98C79.2887 187.287 79.962 187.44 80.722 187.44C81.3487 187.44 81.9154 187.333 82.422 187.12C82.942 186.907 83.3954 186.587 83.782 186.16L84.842 187.4C84.362 187.96 83.762 188.387 83.042 188.68C82.3354 188.973 81.542 189.12 80.662 189.12ZM93.1206 189.12C92.0406 189.12 91.074 188.887 90.2206 188.42C89.3806 187.953 88.7206 187.313 88.2406 186.5C87.7606 185.687 87.5206 184.753 87.5206 183.7C87.5206 182.647 87.7606 181.713 88.2406 180.9C88.7206 180.087 89.3806 179.453 90.2206 179C91.074 178.533 92.0406 178.3 93.1206 178.3C94.0806 178.3 94.934 178.493 95.6806 178.88C96.4406 179.253 97.0273 179.813 97.4406 180.56L95.9806 181.5C95.634 180.98 95.2073 180.6 94.7006 180.36C94.2073 180.107 93.674 179.98 93.1006 179.98C92.4073 179.98 91.7873 180.133 91.2406 180.44C90.694 180.747 90.2606 181.18 89.9406 181.74C89.6206 182.287 89.4606 182.94 89.4606 183.7C89.4606 184.46 89.6206 185.12 89.9406 185.68C90.2606 186.24 90.694 186.673 91.2406 186.98C91.7873 187.287 92.4073 187.44 93.1006 187.44C93.674 187.44 94.2073 187.32 94.7006 187.08C95.2073 186.827 95.634 186.44 95.9806 185.92L97.4406 186.84C97.0273 187.573 96.4406 188.14 95.6806 188.54C94.934 188.927 94.0806 189.12 93.1206 189.12ZM101.89 189V179.58L102.37 180.08H98.0097V178.4H107.69V180.08H103.35L103.81 179.58V189H101.89Z" fill="#003249"/>
<rect x="0.5" y="10.5" width="478.433" height="69" stroke="#FF4444"/>
<rect x="479.066" y="10.5" width="478.433" height="69" stroke="#FF4444"/>
<rect x="0.5" y="79.5" width="478.433" height="69" stroke="#FF4444"/>
<rect x="479.066" y="79.5" width="478.433" height="69" stroke="#FF4444"/>
<rect x="0.5" y="148.5" width="478.433" height="69" stroke="#FF4444"/>
<rect x="479.066" y="148.5" width="478.433" height="69" stroke="#FF4444"/>
<path d="M94.94 271L89.56 264.02L90.76 263.3L96.64 271H94.94ZM85.36 271V257H86.8V271H85.36ZM86.36 264.58V263.28H90.74V264.58H86.36ZM90.88 264.16L89.52 263.92L94.74 257H96.34L90.88 264.16ZM104.288 271.1C103.381 271.1 102.561 270.893 101.828 270.48C101.094 270.053 100.508 269.447 100.068 268.66C99.641 267.86 99.4277 266.887 99.4277 265.74C99.4277 264.593 99.641 263.627 100.068 262.84C100.494 262.04 101.074 261.433 101.808 261.02C102.541 260.607 103.368 260.4 104.288 260.4C105.288 260.4 106.181 260.627 106.968 261.08C107.768 261.52 108.394 262.147 108.848 262.96C109.301 263.76 109.528 264.687 109.528 265.74C109.528 266.807 109.301 267.74 108.848 268.54C108.394 269.34 107.768 269.967 106.968 270.42C106.181 270.873 105.288 271.1 104.288 271.1ZM98.8677 274.88V260.5H100.228V263.66L100.088 265.76L100.288 267.88V274.88H98.8677ZM104.188 269.84C104.934 269.84 105.601 269.673 106.188 269.34C106.774 268.993 107.241 268.513 107.588 267.9C107.934 267.273 108.108 266.553 108.108 265.74C108.108 264.927 107.934 264.213 107.588 263.6C107.241 262.987 106.774 262.507 106.188 262.16C105.601 261.813 104.934 261.64 104.188 261.64C103.441 261.64 102.768 261.813 102.168 262.16C101.581 262.507 101.114 262.987 100.768 263.6C100.434 264.213 100.268 264.927 100.268 265.74C100.268 266.553 100.434 267.273 100.768 267.9C101.114 268.513 101.581 268.993 102.168 269.34C102.768 269.673 103.441 269.84 104.188 269.84ZM119.04 271V268.68L118.98 268.3V264.42C118.98 263.527 118.727 262.84 118.22 262.36C117.727 261.88 116.987 261.64 116 261.64C115.32 261.64 114.673 261.753 114.06 261.98C113.447 262.207 112.927 262.507 112.5 262.88L111.86 261.82C112.393 261.367 113.033 261.02 113.78 260.78C114.527 260.527 115.313 260.4 116.14 260.4C117.5 260.4 118.547 260.74 119.28 261.42C120.027 262.087 120.4 263.107 120.4 264.48V271H119.04ZM115.42 271.1C114.633 271.1 113.947 270.973 113.36 270.72C112.787 270.453 112.347 270.093 112.04 269.64C111.733 269.173 111.58 268.64 111.58 268.04C111.58 267.493 111.707 267 111.96 266.56C112.227 266.107 112.653 265.747 113.24 265.48C113.84 265.2 114.64 265.06 115.64 265.06H119.26V266.12H115.68C114.667 266.12 113.96 266.3 113.56 266.66C113.173 267.02 112.98 267.467 112.98 268C112.98 268.6 113.213 269.08 113.68 269.44C114.147 269.8 114.8 269.98 115.64 269.98C116.44 269.98 117.127 269.8 117.7 269.44C118.287 269.067 118.713 268.533 118.98 267.84L119.3 268.82C119.033 269.513 118.567 270.067 117.9 270.48C117.247 270.893 116.42 271.1 115.42 271.1ZM126.18 271V261.36L126.54 261.74H122.2V260.5H131.58V261.74H127.24L127.6 261.36V271H126.18ZM141.333 271L137.013 265.8L138.193 265.1L143.013 271H141.333ZM133.633 271V260.5H135.053V271H133.633ZM134.613 266.32V265.1H137.993V266.32H134.613ZM138.313 265.9L136.993 265.7L141.173 260.5H142.713L138.313 265.9ZM145.254 271V260.5H146.674V268.84L153.694 260.5H154.954V271H153.534V262.64L146.534 271H145.254ZM159.024 271V260.5H160.444V268.84L167.464 260.5H168.724V271H167.304V262.64L160.304 271H159.024ZM163.784 258.98C162.904 258.98 162.191 258.76 161.644 258.32C161.111 257.867 160.831 257.22 160.804 256.38H161.824C161.837 256.913 162.024 257.333 162.384 257.64C162.744 257.947 163.211 258.1 163.784 258.1C164.357 258.1 164.824 257.947 165.184 257.64C165.557 257.333 165.751 256.913 165.764 256.38H166.784C166.771 257.22 166.491 257.867 165.944 258.32C165.397 258.76 164.677 258.98 163.784 258.98ZM180.408 274.88C179.674 273.667 179.101 272.267 178.688 270.68C178.288 269.08 178.088 267.36 178.088 265.52C178.088 263.68 178.288 261.96 178.688 260.36C179.101 258.747 179.674 257.347 180.408 256.16H181.768C180.981 257.533 180.401 258.993 180.028 260.54C179.668 262.073 179.488 263.733 179.488 265.52C179.488 267.307 179.668 268.973 180.028 270.52C180.401 272.053 180.981 273.507 181.768 274.88H180.408ZM189.33 271.12C188.477 271.12 187.717 270.98 187.05 270.7C186.397 270.42 185.837 269.993 185.37 269.42C184.903 268.847 184.55 268.14 184.31 267.3C184.07 266.447 183.95 265.46 183.95 264.34C183.95 263.34 184.043 262.467 184.23 261.72C184.417 260.96 184.677 260.307 185.01 259.76C185.343 259.213 185.73 258.753 186.17 258.38C186.623 257.993 187.11 257.687 187.63 257.46C188.163 257.22 188.71 257.04 189.27 256.92L193.99 255.82L194.23 257.14L189.79 258.14C189.51 258.207 189.17 258.3 188.77 258.42C188.383 258.54 187.983 258.72 187.57 258.96C187.17 259.2 186.797 259.533 186.45 259.96C186.103 260.387 185.823 260.94 185.61 261.62C185.41 262.287 185.31 263.12 185.31 264.12C185.31 264.333 185.317 264.507 185.33 264.64C185.343 264.76 185.357 264.893 185.37 265.04C185.397 265.173 185.417 265.373 185.43 265.64L184.81 265.12C184.957 264.307 185.257 263.6 185.71 263C186.163 262.387 186.73 261.913 187.41 261.58C188.103 261.233 188.87 261.06 189.71 261.06C190.683 261.06 191.55 261.273 192.31 261.7C193.07 262.113 193.663 262.693 194.09 263.44C194.53 264.187 194.75 265.053 194.75 266.04C194.75 267.013 194.523 267.887 194.07 268.66C193.63 269.433 193.003 270.04 192.19 270.48C191.377 270.907 190.423 271.12 189.33 271.12ZM189.49 269.94C190.237 269.94 190.897 269.773 191.47 269.44C192.043 269.093 192.49 268.627 192.81 268.04C193.143 267.453 193.31 266.793 193.31 266.06C193.31 265.34 193.143 264.7 192.81 264.14C192.49 263.58 192.043 263.14 191.47 262.82C190.897 262.487 190.23 262.32 189.47 262.32C188.723 262.32 188.063 262.48 187.49 262.8C186.917 263.107 186.463 263.54 186.13 264.1C185.81 264.66 185.65 265.307 185.65 266.04C185.65 266.773 185.81 267.433 186.13 268.02C186.463 268.607 186.917 269.073 187.49 269.42C188.077 269.767 188.743 269.94 189.49 269.94ZM202.293 271.1C201.2 271.1 200.24 270.873 199.413 270.42C198.587 269.953 197.94 269.32 197.473 268.52C197.007 267.707 196.773 266.78 196.773 265.74C196.773 264.7 196.993 263.78 197.433 262.98C197.887 262.18 198.5 261.553 199.273 261.1C200.06 260.633 200.94 260.4 201.913 260.4C202.9 260.4 203.773 260.627 204.533 261.08C205.307 261.52 205.913 262.147 206.353 262.96C206.793 263.76 207.013 264.687 207.013 265.74C207.013 265.807 207.007 265.88 206.993 265.96C206.993 266.027 206.993 266.1 206.993 266.18H197.853V265.12H206.233L205.673 265.54C205.673 264.78 205.507 264.107 205.173 263.52C204.853 262.92 204.413 262.453 203.853 262.12C203.293 261.787 202.647 261.62 201.913 261.62C201.193 261.62 200.547 261.787 199.973 262.12C199.4 262.453 198.953 262.92 198.633 263.52C198.313 264.12 198.153 264.807 198.153 265.58V265.8C198.153 266.6 198.327 267.307 198.673 267.92C199.033 268.52 199.527 268.993 200.153 269.34C200.793 269.673 201.52 269.84 202.333 269.84C202.973 269.84 203.567 269.727 204.113 269.5C204.673 269.273 205.153 268.927 205.553 268.46L206.353 269.38C205.887 269.94 205.3 270.367 204.593 270.66C203.9 270.953 203.133 271.1 202.293 271.1ZM212.684 271.12C213.55 271.12 214.33 270.987 215.024 270.72C215.73 270.453 216.29 270.087 216.704 269.62C217.117 269.14 217.324 268.587 217.324 267.96C217.324 267.16 216.984 266.527 216.304 266.06C215.637 265.593 214.704 265.36 213.504 265.36L213.444 265.74C214.124 265.74 214.73 265.633 215.264 265.42C215.797 265.207 216.224 264.907 216.544 264.52C216.864 264.133 217.024 263.68 217.024 263.16C217.024 262.573 216.824 262.073 216.424 261.66C216.024 261.233 215.484 260.907 214.804 260.68C214.137 260.453 213.384 260.353 212.544 260.38C211.93 260.38 211.317 260.467 210.704 260.64C210.104 260.8 209.497 261.04 208.884 261.36L209.284 262.46C209.83 262.18 210.384 261.973 210.944 261.84C211.504 261.693 212.044 261.613 212.564 261.6C213.137 261.6 213.65 261.667 214.104 261.8C214.557 261.933 214.91 262.133 215.164 262.4C215.43 262.667 215.564 262.987 215.564 263.36C215.564 263.707 215.45 264.007 215.224 264.26C215.01 264.513 214.704 264.707 214.304 264.84C213.904 264.973 213.444 265.04 212.924 265.04H211.224V266.08H213.024C213.904 266.08 214.597 266.24 215.104 266.56C215.61 266.867 215.864 267.3 215.864 267.86C215.864 268.247 215.73 268.593 215.464 268.9C215.197 269.207 214.824 269.447 214.344 269.62C213.864 269.793 213.297 269.887 212.644 269.9C211.99 269.9 211.33 269.807 210.664 269.62C209.997 269.42 209.41 269.133 208.904 268.76L208.444 269.82C209.017 270.26 209.677 270.587 210.424 270.8C211.17 271.013 211.924 271.12 212.684 271.12ZM220.727 274.98C220.234 274.98 219.761 274.9 219.307 274.74C218.867 274.58 218.487 274.34 218.167 274.02L218.827 272.96C219.094 273.213 219.381 273.407 219.687 273.54C220.007 273.687 220.361 273.76 220.747 273.76C221.214 273.76 221.614 273.627 221.947 273.36C222.294 273.107 222.621 272.653 222.927 272L223.607 270.46L223.767 270.24L228.087 260.5H229.487L224.227 272.26C223.934 272.94 223.607 273.48 223.247 273.88C222.901 274.28 222.521 274.56 222.107 274.72C221.694 274.893 221.234 274.98 220.727 274.98ZM223.527 271.3L218.687 260.5H220.167L224.447 270.14L223.527 271.3ZM238.431 270.32V261.74H233.371L233.251 264.08C233.224 264.787 233.178 265.48 233.111 266.16C233.058 266.84 232.958 267.467 232.811 268.04C232.678 268.6 232.484 269.06 232.231 269.42C231.978 269.767 231.651 269.967 231.251 270.02L229.831 269.76C230.244 269.773 230.584 269.627 230.851 269.32C231.118 269 231.324 268.567 231.471 268.02C231.618 267.473 231.724 266.853 231.791 266.16C231.858 265.453 231.911 264.733 231.951 264L232.091 260.5H239.851V270.32H238.431ZM229.391 273.54V269.76H241.491V273.54H240.151V271H230.731V273.54H229.391ZM250.778 271V268.68L250.718 268.3V264.42C250.718 263.527 250.465 262.84 249.958 262.36C249.465 261.88 248.725 261.64 247.738 261.64C247.058 261.64 246.412 261.753 245.798 261.98C245.185 262.207 244.665 262.507 244.238 262.88L243.598 261.82C244.132 261.367 244.772 261.02 245.518 260.78C246.265 260.527 247.052 260.4 247.878 260.4C249.238 260.4 250.285 260.74 251.018 261.42C251.765 262.087 252.138 263.107 252.138 264.48V271H250.778ZM247.158 271.1C246.372 271.1 245.685 270.973 245.098 270.72C244.525 270.453 244.085 270.093 243.778 269.64C243.472 269.173 243.318 268.64 243.318 268.04C243.318 267.493 243.445 267 243.698 266.56C243.965 266.107 244.392 265.747 244.978 265.48C245.578 265.2 246.378 265.06 247.378 265.06H250.998V266.12H247.418C246.405 266.12 245.698 266.3 245.298 266.66C244.912 267.02 244.718 267.467 244.718 268C244.718 268.6 244.952 269.08 245.418 269.44C245.885 269.8 246.538 269.98 247.378 269.98C248.178 269.98 248.865 269.8 249.438 269.44C250.025 269.067 250.452 268.533 250.718 267.84L251.038 268.82C250.772 269.513 250.305 270.067 249.638 270.48C248.985 270.893 248.158 271.1 247.158 271.1ZM261.338 271.1C260.432 271.1 259.612 270.893 258.878 270.48C258.145 270.053 257.558 269.447 257.118 268.66C256.692 267.86 256.478 266.887 256.478 265.74C256.478 264.593 256.692 263.627 257.118 262.84C257.545 262.04 258.125 261.433 258.858 261.02C259.592 260.607 260.418 260.4 261.338 260.4C262.338 260.4 263.232 260.627 264.018 261.08C264.818 261.52 265.445 262.147 265.898 262.96C266.352 263.76 266.578 264.687 266.578 265.74C266.578 266.807 266.352 267.74 265.898 268.54C265.445 269.34 264.818 269.967 264.018 270.42C263.232 270.873 262.338 271.1 261.338 271.1ZM255.918 274.88V260.5H257.278V263.66L257.138 265.76L257.338 267.88V274.88H255.918ZM261.238 269.84C261.985 269.84 262.652 269.673 263.238 269.34C263.825 268.993 264.292 268.513 264.638 267.9C264.985 267.273 265.158 266.553 265.158 265.74C265.158 264.927 264.985 264.213 264.638 263.6C264.292 262.987 263.825 262.507 263.238 262.16C262.652 261.813 261.985 261.64 261.238 261.64C260.492 261.64 259.818 261.813 259.218 262.16C258.632 262.507 258.165 262.987 257.818 263.6C257.485 264.213 257.318 264.927 257.318 265.74C257.318 266.553 257.485 267.273 257.818 267.9C258.165 268.513 258.632 268.993 259.218 269.34C259.818 269.673 260.492 269.84 261.238 269.84ZM269.629 271V260.5H271.049V265.14H277.669V260.5H279.089V271H277.669V266.36H271.049V271H269.629ZM293.365 271V260.5H294.785V271H293.365ZM287.545 264.2C288.865 264.213 289.872 264.507 290.565 265.08C291.259 265.653 291.605 266.48 291.605 267.56C291.605 268.68 291.232 269.54 290.485 270.14C289.739 270.74 288.672 271.033 287.285 271.02L283.125 271V260.5H284.545V264.16L287.545 264.2ZM287.185 269.94C288.172 269.953 288.912 269.76 289.405 269.36C289.912 268.947 290.165 268.347 290.165 267.56C290.165 266.773 289.919 266.2 289.425 265.84C288.932 265.467 288.185 265.273 287.185 265.26L284.545 265.22V269.9L287.185 269.94ZM298.829 271V260.5H300.249V268.84L307.269 260.5H308.529V271H307.109V262.64L300.109 271H298.829ZM303.589 258.98C302.709 258.98 301.995 258.76 301.449 258.32C300.915 257.867 300.635 257.22 300.609 256.38H301.629C301.642 256.913 301.829 257.333 302.189 257.64C302.549 257.947 303.015 258.1 303.589 258.1C304.162 258.1 304.629 257.947 304.989 257.64C305.362 257.333 305.555 256.913 305.569 256.38H306.589C306.575 257.22 306.295 257.867 305.749 258.32C305.202 258.76 304.482 258.98 303.589 258.98ZM312.738 274.88H311.378C312.178 273.507 312.758 272.053 313.118 270.52C313.491 268.973 313.678 267.307 313.678 265.52C313.678 263.733 313.491 262.073 313.118 260.54C312.758 258.993 312.178 257.533 311.378 256.16H312.738C313.498 257.347 314.078 258.747 314.478 260.36C314.878 261.96 315.078 263.68 315.078 265.52C315.078 267.36 314.878 269.08 314.478 270.68C314.078 272.267 313.498 273.667 312.738 274.88ZM328.815 271.1C327.775 271.1 326.841 270.873 326.015 270.42C325.201 269.953 324.561 269.32 324.095 268.52C323.628 267.707 323.395 266.78 323.395 265.74C323.395 264.687 323.628 263.76 324.095 262.96C324.561 262.16 325.201 261.533 326.015 261.08C326.841 260.627 327.775 260.4 328.815 260.4C329.708 260.4 330.515 260.573 331.235 260.92C331.955 261.267 332.521 261.787 332.935 262.48L331.875 263.2C331.515 262.667 331.068 262.273 330.535 262.02C330.001 261.767 329.421 261.64 328.795 261.64C328.048 261.64 327.375 261.813 326.775 262.16C326.175 262.493 325.701 262.967 325.355 263.58C325.008 264.193 324.835 264.913 324.835 265.74C324.835 266.567 325.008 267.287 325.355 267.9C325.701 268.513 326.175 268.993 326.775 269.34C327.375 269.673 328.048 269.84 328.795 269.84C329.421 269.84 330.001 269.713 330.535 269.46C331.068 269.207 331.515 268.82 331.875 268.3L332.935 269.02C332.521 269.7 331.955 270.22 331.235 270.58C330.515 270.927 329.708 271.1 328.815 271.1ZM333.413 270.98L333.513 269.76C333.606 269.773 333.693 269.793 333.773 269.82C333.866 269.833 333.946 269.84 334.013 269.84C334.439 269.84 334.779 269.68 335.033 269.36C335.299 269.04 335.499 268.613 335.633 268.08C335.766 267.547 335.859 266.947 335.913 266.28C335.966 265.6 336.013 264.92 336.053 264.24L336.233 260.5H343.933V271H342.513V261.32L342.873 261.74H337.153L337.493 261.3L337.333 264.34C337.293 265.247 337.219 266.113 337.113 266.94C337.019 267.767 336.866 268.493 336.653 269.12C336.453 269.747 336.173 270.24 335.812 270.6C335.453 270.947 334.993 271.12 334.433 271.12C334.273 271.12 334.106 271.107 333.933 271.08C333.773 271.053 333.599 271.02 333.413 270.98ZM352.289 271.1C351.276 271.1 350.363 270.873 349.549 270.42C348.749 269.953 348.116 269.32 347.649 268.52C347.183 267.707 346.949 266.78 346.949 265.74C346.949 264.687 347.183 263.76 347.649 262.96C348.116 262.16 348.749 261.533 349.549 261.08C350.349 260.627 351.263 260.4 352.289 260.4C353.329 260.4 354.249 260.627 355.049 261.08C355.863 261.533 356.496 262.16 356.949 262.96C357.416 263.76 357.649 264.687 357.649 265.74C357.649 266.78 357.416 267.707 356.949 268.52C356.496 269.32 355.863 269.953 355.049 270.42C354.236 270.873 353.316 271.1 352.289 271.1ZM352.289 269.84C353.049 269.84 353.723 269.673 354.309 269.34C354.896 268.993 355.356 268.513 355.689 267.9C356.036 267.273 356.209 266.553 356.209 265.74C356.209 264.913 356.036 264.193 355.689 263.58C355.356 262.967 354.896 262.493 354.309 262.16C353.723 261.813 353.056 261.64 352.309 261.64C351.563 261.64 350.896 261.813 350.309 262.16C349.723 262.493 349.256 262.967 348.909 263.58C348.563 264.193 348.389 264.913 348.389 265.74C348.389 266.553 348.563 267.273 348.909 267.9C349.256 268.513 349.723 268.993 350.309 269.34C350.896 269.673 351.556 269.84 352.289 269.84ZM360.684 271V260.5H368.124V261.74H361.744L362.104 261.38V271H360.684Z" fill="#003249"/>
<path d="M94.66 325.3V313.28H87.96L87.84 316.68C87.8 317.733 87.7333 318.747 87.64 319.72C87.56 320.68 87.4267 321.547 87.24 322.32C87.0667 323.08 86.8267 323.7 86.52 324.18C86.2267 324.66 85.84 324.94 85.36 325.02L83.74 324.72C84.2733 324.747 84.7133 324.553 85.06 324.14C85.42 323.727 85.6933 323.147 85.88 322.4C86.08 321.653 86.2267 320.78 86.32 319.78C86.4133 318.78 86.48 317.7 86.52 316.54L86.68 312H96.12V325.3H94.66ZM83.22 329.14L83.24 324.72H98.22V329.14H96.84V326H84.62L84.6 329.14H83.22ZM104.926 326.1C103.913 326.1 102.999 325.873 102.186 325.42C101.386 324.953 100.753 324.32 100.286 323.52C99.8193 322.707 99.5859 321.78 99.5859 320.74C99.5859 319.687 99.8193 318.76 100.286 317.96C100.753 317.16 101.386 316.533 102.186 316.08C102.986 315.627 103.899 315.4 104.926 315.4C105.966 315.4 106.886 315.627 107.686 316.08C108.499 316.533 109.133 317.16 109.586 317.96C110.053 318.76 110.286 319.687 110.286 320.74C110.286 321.78 110.053 322.707 109.586 323.52C109.133 324.32 108.499 324.953 107.686 325.42C106.873 325.873 105.953 326.1 104.926 326.1ZM104.926 324.84C105.686 324.84 106.359 324.673 106.946 324.34C107.533 323.993 107.993 323.513 108.326 322.9C108.673 322.273 108.846 321.553 108.846 320.74C108.846 319.913 108.673 319.193 108.326 318.58C107.993 317.967 107.533 317.493 106.946 317.16C106.359 316.813 105.693 316.64 104.946 316.64C104.199 316.64 103.533 316.813 102.946 317.16C102.359 317.493 101.893 317.967 101.546 318.58C101.199 319.193 101.026 319.913 101.026 320.74C101.026 321.553 101.199 322.273 101.546 322.9C101.893 323.513 102.359 323.993 102.946 324.34C103.533 324.673 104.193 324.84 104.926 324.84ZM111.342 325.98L111.442 324.76C111.536 324.773 111.622 324.793 111.702 324.82C111.796 324.833 111.876 324.84 111.942 324.84C112.369 324.84 112.709 324.68 112.962 324.36C113.229 324.04 113.429 323.613 113.562 323.08C113.696 322.547 113.789 321.947 113.842 321.28C113.896 320.6 113.942 319.92 113.982 319.24L114.162 315.5H121.862V326H120.442V316.32L120.802 316.74H115.082L115.422 316.3L115.262 319.34C115.222 320.247 115.149 321.113 115.042 321.94C114.949 322.767 114.796 323.493 114.582 324.12C114.382 324.747 114.102 325.24 113.742 325.6C113.382 325.947 112.922 326.12 112.362 326.12C112.202 326.12 112.036 326.107 111.862 326.08C111.702 326.053 111.529 326.02 111.342 325.98ZM125.899 326V315.5H133.339V316.74H126.959L127.319 316.38V326H125.899ZM135.391 326V315.5H136.811V323.84L143.831 315.5H145.091V326H143.671V317.64L136.671 326H135.391ZM149.161 326V315.5H150.581V323.84L157.601 315.5H158.861V326H157.441V317.64L150.441 326H149.161ZM153.921 313.98C153.041 313.98 152.327 313.76 151.781 313.32C151.247 312.867 150.967 312.22 150.941 311.38H151.961C151.974 311.913 152.161 312.333 152.521 312.64C152.881 312.947 153.347 313.1 153.921 313.1C154.494 313.1 154.961 312.947 155.321 312.64C155.694 312.333 155.887 311.913 155.901 311.38H156.921C156.907 312.22 156.627 312.867 156.081 313.32C155.534 313.76 154.814 313.98 153.921 313.98ZM170.545 329.88C169.811 328.667 169.238 327.267 168.825 325.68C168.425 324.08 168.225 322.36 168.225 320.52C168.225 318.68 168.425 316.96 168.825 315.36C169.238 313.747 169.811 312.347 170.545 311.16H171.905C171.118 312.533 170.538 313.993 170.165 315.54C169.805 317.073 169.625 318.733 169.625 320.52C169.625 322.307 169.805 323.973 170.165 325.52C170.538 327.053 171.118 328.507 171.905 329.88H170.545ZM174.927 329.98C174.433 329.98 173.96 329.9 173.507 329.74C173.067 329.58 172.687 329.34 172.367 329.02L173.027 327.96C173.293 328.213 173.58 328.407 173.887 328.54C174.207 328.687 174.56 328.76 174.947 328.76C175.413 328.76 175.813 328.627 176.147 328.36C176.493 328.107 176.82 327.653 177.127 327L177.807 325.46L177.967 325.24L182.287 315.5H183.687L178.427 327.26C178.133 327.94 177.807 328.48 177.447 328.88C177.1 329.28 176.72 329.56 176.307 329.72C175.893 329.893 175.433 329.98 174.927 329.98ZM177.727 326.3L172.887 315.5H174.367L178.647 325.14L177.727 326.3ZM192.63 325.32V316.74H187.57L187.45 319.08C187.423 319.787 187.377 320.48 187.31 321.16C187.257 321.84 187.157 322.467 187.01 323.04C186.877 323.6 186.683 324.06 186.43 324.42C186.177 324.767 185.85 324.967 185.45 325.02L184.03 324.76C184.443 324.773 184.783 324.627 185.05 324.32C185.317 324 185.523 323.567 185.67 323.02C185.817 322.473 185.923 321.853 185.99 321.16C186.057 320.453 186.11 319.733 186.15 319L186.29 315.5H194.05V325.32H192.63ZM183.59 328.54V324.76H195.69V328.54H194.35V326H184.93V328.54H183.59ZM204.978 326V323.68L204.918 323.3V319.42C204.918 318.527 204.664 317.84 204.158 317.36C203.664 316.88 202.924 316.64 201.938 316.64C201.258 316.64 200.611 316.753 199.998 316.98C199.384 317.207 198.864 317.507 198.438 317.88L197.798 316.82C198.331 316.367 198.971 316.02 199.718 315.78C200.464 315.527 201.251 315.4 202.078 315.4C203.438 315.4 204.484 315.74 205.218 316.42C205.964 317.087 206.338 318.107 206.338 319.48V326H204.978ZM201.358 326.1C200.571 326.1 199.884 325.973 199.298 325.72C198.724 325.453 198.284 325.093 197.978 324.64C197.671 324.173 197.518 323.64 197.518 323.04C197.518 322.493 197.644 322 197.898 321.56C198.164 321.107 198.591 320.747 199.178 320.48C199.778 320.2 200.578 320.06 201.577 320.06H205.198V321.12H201.618C200.604 321.12 199.898 321.3 199.498 321.66C199.111 322.02 198.918 322.467 198.918 323C198.918 323.6 199.151 324.08 199.618 324.44C200.084 324.8 200.738 324.98 201.577 324.98C202.378 324.98 203.064 324.8 203.638 324.44C204.224 324.067 204.651 323.533 204.918 322.84L205.238 323.82C204.971 324.513 204.504 325.067 203.838 325.48C203.184 325.893 202.358 326.1 201.358 326.1ZM215.538 326.1C214.631 326.1 213.811 325.893 213.078 325.48C212.344 325.053 211.758 324.447 211.318 323.66C210.891 322.86 210.678 321.887 210.678 320.74C210.678 319.593 210.891 318.627 211.318 317.84C211.744 317.04 212.324 316.433 213.058 316.02C213.791 315.607 214.618 315.4 215.538 315.4C216.538 315.4 217.431 315.627 218.218 316.08C219.018 316.52 219.644 317.147 220.098 317.96C220.551 318.76 220.778 319.687 220.778 320.74C220.778 321.807 220.551 322.74 220.098 323.54C219.644 324.34 219.018 324.967 218.218 325.42C217.431 325.873 216.538 326.1 215.538 326.1ZM210.118 329.88V315.5H211.478V318.66L211.338 320.76L211.538 322.88V329.88H210.118ZM215.438 324.84C216.184 324.84 216.851 324.673 217.438 324.34C218.024 323.993 218.491 323.513 218.838 322.9C219.184 322.273 219.358 321.553 219.358 320.74C219.358 319.927 219.184 319.213 218.838 318.6C218.491 317.987 218.024 317.507 217.438 317.16C216.851 316.813 216.184 316.64 215.438 316.64C214.691 316.64 214.018 316.813 213.418 317.16C212.831 317.507 212.364 317.987 212.018 318.6C211.684 319.213 211.518 319.927 211.518 320.74C211.518 321.553 211.684 322.273 212.018 322.9C212.364 323.513 212.831 323.993 213.418 324.34C214.018 324.673 214.691 324.84 215.438 324.84ZM223.829 326V315.5H225.249V320.14H231.869V315.5H233.289V326H231.869V321.36H225.249V326H223.829ZM247.565 326V315.5H248.985V326H247.565ZM241.745 319.2C243.065 319.213 244.071 319.507 244.765 320.08C245.458 320.653 245.805 321.48 245.805 322.56C245.805 323.68 245.431 324.54 244.685 325.14C243.938 325.74 242.871 326.033 241.485 326.02L237.325 326V315.5H238.745V319.16L241.745 319.2ZM241.385 324.94C242.371 324.953 243.111 324.76 243.605 324.36C244.111 323.947 244.365 323.347 244.365 322.56C244.365 321.773 244.118 321.2 243.625 320.84C243.131 320.467 242.385 320.273 241.385 320.26L238.745 320.22V324.9L241.385 324.94ZM253.028 326V315.5H254.448V323.84L261.468 315.5H262.728V326H261.308V317.64L254.308 326H253.028ZM257.788 313.98C256.908 313.98 256.194 313.76 255.648 313.32C255.114 312.867 254.834 312.22 254.808 311.38H255.828C255.841 311.913 256.028 312.333 256.388 312.64C256.748 312.947 257.214 313.1 257.788 313.1C258.361 313.1 258.828 312.947 259.188 312.64C259.561 312.333 259.754 311.913 259.768 311.38H260.788C260.774 312.22 260.494 312.867 259.948 313.32C259.401 313.76 258.681 313.98 257.788 313.98ZM266.937 329.88H265.577C266.377 328.507 266.957 327.053 267.317 325.52C267.691 323.973 267.877 322.307 267.877 320.52C267.877 318.733 267.691 317.073 267.317 315.54C266.957 313.993 266.377 312.533 265.577 311.16H266.937C267.697 312.347 268.277 313.747 268.677 315.36C269.077 316.96 269.277 318.68 269.277 320.52C269.277 322.36 269.077 324.08 268.677 325.68C268.277 327.267 267.697 328.667 266.937 329.88ZM283.014 326.1C281.974 326.1 281.04 325.873 280.214 325.42C279.4 324.953 278.76 324.32 278.294 323.52C277.827 322.707 277.594 321.78 277.594 320.74C277.594 319.687 277.827 318.76 278.294 317.96C278.76 317.16 279.4 316.533 280.214 316.08C281.04 315.627 281.974 315.4 283.014 315.4C283.907 315.4 284.714 315.573 285.434 315.92C286.154 316.267 286.72 316.787 287.134 317.48L286.074 318.2C285.714 317.667 285.267 317.273 284.734 317.02C284.2 316.767 283.62 316.64 282.994 316.64C282.247 316.64 281.574 316.813 280.974 317.16C280.374 317.493 279.9 317.967 279.554 318.58C279.207 319.193 279.034 319.913 279.034 320.74C279.034 321.567 279.207 322.287 279.554 322.9C279.9 323.513 280.374 323.993 280.974 324.34C281.574 324.673 282.247 324.84 282.994 324.84C283.62 324.84 284.2 324.713 284.734 324.46C285.267 324.207 285.714 323.82 286.074 323.3L287.134 324.02C286.72 324.7 286.154 325.22 285.434 325.58C284.714 325.927 283.907 326.1 283.014 326.1ZM287.612 325.98L287.712 324.76C287.805 324.773 287.892 324.793 287.972 324.82C288.065 324.833 288.145 324.84 288.212 324.84C288.638 324.84 288.978 324.68 289.232 324.36C289.498 324.04 289.698 323.613 289.832 323.08C289.965 322.547 290.058 321.947 290.112 321.28C290.165 320.6 290.212 319.92 290.252 319.24L290.432 315.5H298.132V326H296.712V316.32L297.072 316.74H291.352L291.692 316.3L291.532 319.34C291.492 320.247 291.418 321.113 291.312 321.94C291.218 322.767 291.065 323.493 290.852 324.12C290.652 324.747 290.372 325.24 290.012 325.6C289.652 325.947 289.192 326.12 288.632 326.12C288.472 326.12 288.305 326.107 288.132 326.08C287.972 326.053 287.798 326.02 287.612 325.98ZM306.488 326.1C305.475 326.1 304.562 325.873 303.748 325.42C302.948 324.953 302.315 324.32 301.848 323.52C301.382 322.707 301.148 321.78 301.148 320.74C301.148 319.687 301.382 318.76 301.848 317.96C302.315 317.16 302.948 316.533 303.748 316.08C304.548 315.627 305.462 315.4 306.488 315.4C307.528 315.4 308.448 315.627 309.248 316.08C310.062 316.533 310.695 317.16 311.148 317.96C311.615 318.76 311.848 319.687 311.848 320.74C311.848 321.78 311.615 322.707 311.148 323.52C310.695 324.32 310.062 324.953 309.248 325.42C308.435 325.873 307.515 326.1 306.488 326.1ZM306.488 324.84C307.248 324.84 307.922 324.673 308.508 324.34C309.095 323.993 309.555 323.513 309.888 322.9C310.235 322.273 310.408 321.553 310.408 320.74C310.408 319.913 310.235 319.193 309.888 318.58C309.555 317.967 309.095 317.493 308.508 317.16C307.922 316.813 307.255 316.64 306.508 316.64C305.762 316.64 305.095 316.813 304.508 317.16C303.922 317.493 303.455 317.967 303.108 318.58C302.762 319.193 302.588 319.913 302.588 320.74C302.588 321.553 302.762 322.273 303.108 322.9C303.455 323.513 303.922 323.993 304.508 324.34C305.095 324.673 305.755 324.84 306.488 324.84ZM314.883 326V315.5H322.323V316.74H315.943L316.303 316.38V326H314.883Z" fill="#003249"/>
<mask id="path-21-inside-7_716_3" fill="white">
<path d="M52 253.333C52 257.711 51.3534 262.045 50.097 266.089C48.8406 270.134 46.9991 273.808 44.6777 276.904C42.3562 279.999 39.6002 282.454 36.5671 284.129C33.5339 285.804 30.283 286.667 27 286.667C23.717 286.667 20.4661 285.804 17.4329 284.129C14.3998 282.454 11.6438 279.999 9.32233 276.904C7.00086 273.808 5.15938 270.134 3.90301 266.089C2.64664 262.045 2 257.711 2 253.333H3.70359C3.70359 257.412 4.30617 261.452 5.47693 265.22C6.64768 268.989 8.36368 272.413 10.527 275.297C12.6902 278.182 15.2584 280.47 18.0849 282.031C20.9113 283.592 23.9407 284.395 27 284.395C30.0593 284.395 33.0887 283.592 35.9151 282.031C38.7416 280.47 41.3098 278.182 43.473 275.297C45.6363 272.413 47.3523 268.989 48.5231 265.22C49.6938 261.452 50.2964 257.412 50.2964 253.333H52Z"/>
</mask>
<path d="M52 253.333C52 257.711 51.3534 262.045 50.097 266.089C48.8406 270.134 46.9991 273.808 44.6777 276.904C42.3562 279.999 39.6002 282.454 36.5671 284.129C33.5339 285.804 30.283 286.667 27 286.667C23.717 286.667 20.4661 285.804 17.4329 284.129C14.3998 282.454 11.6438 279.999 9.32233 276.904C7.00086 273.808 5.15938 270.134 3.90301 266.089C2.64664 262.045 2 257.711 2 253.333H3.70359C3.70359 257.412 4.30617 261.452 5.47693 265.22C6.64768 268.989 8.36368 272.413 10.527 275.297C12.6902 278.182 15.2584 280.47 18.0849 282.031C20.9113 283.592 23.9407 284.395 27 284.395C30.0593 284.395 33.0887 283.592 35.9151 282.031C38.7416 280.47 41.3098 278.182 43.473 275.297C45.6363 272.413 47.3523 268.989 48.5231 265.22C49.6938 261.452 50.2964 257.412 50.2964 253.333H52Z" stroke="#003249" stroke-width="6" mask="url(#path-21-inside-7_716_3)"/>
<line x1="2" y1="318" x2="52" y2="318" stroke="#003249" stroke-width="2"/>
</svg>
